<svg width="77" height="73" viewBox="0 0 77 73" fill="none" xmlns="http://www.w3.org/2000/svg">
<path d="M37.1128 1.44338C38.6598 0.550211 40.5658 0.550212 42.1128 1.44338L68.7227 16.8066C70.2697 17.6998 71.2227 19.3504 71.2227 21.1368V51.8633C71.2227 53.6496 70.2697 55.3002 68.7227 56.1934L42.1128 71.5566C40.5658 72.4498 38.6598 72.4498 37.1128 71.5566L10.5029 56.1934C8.95586 55.3002 8.00286 53.6496 8.00286 51.8632V21.1367C8.00286 19.3504 8.95586 17.6998 10.5029 16.8066L37.1128 1.44338Z" fill="url(#paint0_linear_7340_13799)"/>
<g clip-path="url(#clip0_7340_13799)">
<path d="M44.536 38.8743L43.4747 36.539C43.4148 36.4074 43.4148 36.2563 43.4747 36.1247L44.536 33.789C44.885 33.0203 44.7053 32.1166 44.0885 31.5398L42.2143 29.7885C42.1087 29.6897 42.0511 29.5501 42.056 29.4055L42.1422 26.8416C42.1709 25.9978 41.6589 25.2315 40.8685 24.9351L38.4668 24.0337C38.3314 23.9829 38.2246 23.8761 38.1738 23.7407L37.2728 21.339C36.976 20.5486 36.207 20.0359 35.3658 20.0652L32.8024 20.1518C32.6559 20.156 32.5182 20.0988 32.4194 19.9931L30.6677 18.119C30.0913 17.5021 29.1872 17.3225 28.4185 17.6719L26.0832 18.7328C25.9516 18.7927 25.8005 18.7923 25.6689 18.7328L23.3332 17.6719C22.5645 17.3225 21.6608 17.5021 21.084 18.119L19.3327 19.9931C19.2339 20.0988 19.095 20.1568 18.9497 20.1518L16.3858 20.0652C15.5416 20.0374 14.776 20.5489 14.4793 21.3393L13.5778 23.7411C13.5271 23.8765 13.4203 23.9833 13.2849 24.034L10.8831 24.9351C10.0927 25.2318 9.58081 25.9978 9.60942 26.8416L9.69602 29.4055C9.70059 29.5501 9.64299 29.6897 9.53733 29.7885L7.66355 31.5398C7.04672 32.1166 6.86666 33.0203 7.21609 33.789L8.27695 36.1243C8.33684 36.2559 8.33684 36.407 8.27695 36.539L7.21609 38.8743C6.86666 39.643 7.04633 40.5467 7.66317 41.1235L9.53733 42.8752C9.64299 42.974 9.70059 43.1132 9.69602 43.2578L9.60942 45.8216C9.58081 46.6654 10.0927 47.4318 10.8831 47.7282L13.2849 48.6292C13.4203 48.6804 13.5271 48.7872 13.5778 48.9222L14.4793 51.3239C14.5086 51.4025 14.5426 51.4784 14.5811 51.5509L8.55619 60.8374C8.26398 61.2875 8.26169 61.8479 8.55008 62.3003C8.83809 62.7528 9.34659 62.9877 9.87798 62.9134L14.7825 62.2279C14.8481 62.2187 14.9134 62.2492 14.9481 62.3057L17.7545 66.8528C17.9995 67.2495 18.424 67.4898 18.8902 67.4948C18.8955 67.4948 18.9005 67.4952 18.9058 67.4952C19.3659 67.4952 19.7893 67.2655 20.0399 66.8787L27.9039 54.7575L28.4185 54.9914C29.1872 55.3404 30.0909 55.1608 30.6677 54.5439L32.4194 52.6701C32.5182 52.5645 32.6585 52.5065 32.802 52.5115L35.3658 52.598C36.21 52.6267 36.9756 52.1147 37.2724 51.3239L38.1734 48.9222C38.2242 48.7868 38.3314 48.68 38.4664 48.6292L40.8681 47.7282C41.6589 47.4314 42.1709 46.6651 42.1422 45.8216L42.0557 43.2578C42.0507 43.1132 42.1087 42.9736 42.2143 42.8748L44.0881 41.1231C44.7053 40.5467 44.885 39.643 44.536 38.8743ZM18.9077 65.9327L16.1947 61.5366C15.8548 60.9858 15.2216 60.6879 14.58 60.7771L9.9188 61.4287L15.7103 52.5023C15.9239 52.5721 16.152 52.6057 16.3858 52.598L18.9497 52.5115C19.095 52.5065 19.2339 52.5645 19.3327 52.6701L21.0844 54.5439C21.4647 54.951 21.9877 55.1676 22.5202 55.1676C22.7945 55.1676 23.0718 55.11 23.3332 54.9914L25.6689 53.9305C25.8005 53.8706 25.9516 53.8706 26.0832 53.9305L26.5554 54.1449L18.9077 65.9327ZM43.0883 40.0531L41.2141 41.8048C40.7995 42.1923 40.5729 42.7401 40.592 43.3074L40.6785 45.8708C40.6858 46.086 40.5553 46.2813 40.3539 46.3568L37.9522 47.2579C37.4208 47.4574 37.0016 47.8762 36.8024 48.4076L35.901 50.8093C35.8255 51.0108 35.6287 51.1412 35.4154 51.134L32.8516 51.0474C32.2847 51.0287 31.7365 51.2553 31.3493 51.6699L29.5976 53.5437C29.4508 53.7009 29.2204 53.747 29.0243 53.6578L26.6889 52.5969C26.1724 52.3619 25.5796 52.3619 25.0627 52.5969L22.7274 53.6578C22.5313 53.7467 22.3013 53.7009 22.1544 53.5437L20.4027 51.6699C20.0304 51.2713 19.5101 51.0466 18.9669 51.0466C18.9447 51.0466 18.9226 51.047 18.9001 51.0478L16.3366 51.1344C16.1215 51.1416 15.9262 51.0111 15.8506 50.8097L14.9496 48.408C14.7501 47.8766 14.3309 47.4574 13.7999 47.2582L11.3981 46.3568C11.1967 46.2813 11.0663 46.086 11.0735 45.8712L11.1597 43.3074C11.1792 42.7401 10.9522 42.1923 10.5375 41.8051L8.66376 40.0531C8.5066 39.9062 8.46044 39.6762 8.5497 39.4801L9.61057 37.1447C9.84555 36.6282 9.84555 36.0354 9.61057 35.5185L8.5497 33.1832C8.46082 32.9875 8.5066 32.7571 8.66376 32.6102L10.5375 30.8585C10.9522 30.4709 11.1792 29.9232 11.1601 29.3559L11.0735 26.7921C11.0663 26.5773 11.1967 26.382 11.3981 26.3064L13.7999 25.4054C14.3312 25.2059 14.7501 24.7871 14.9496 24.2557L15.8506 21.8539C15.9262 21.6525 16.1207 21.5224 16.3366 21.5293L18.9005 21.6155C19.4685 21.6357 20.0151 21.408 20.4027 20.9933L22.1544 19.1196C22.3013 18.962 22.5317 18.9166 22.7274 19.0055L25.0627 20.0664C25.5796 20.301 26.172 20.301 26.6889 20.0664L29.0243 19.0055C29.2204 18.9166 29.4508 18.9624 29.5976 19.1196L31.3493 20.9933C31.7365 21.408 32.2858 21.6361 32.8516 21.6159L35.4154 21.5293C35.6275 21.5224 35.8255 21.6525 35.901 21.8539L36.8024 24.2557C37.0016 24.7871 37.4208 25.2059 37.9522 25.4054L40.3539 26.3064C40.5553 26.3824 40.6858 26.5773 40.6785 26.7924L40.592 29.3563C40.5729 29.9235 40.7995 30.4709 41.2141 30.8585L43.0883 32.6102C43.2455 32.7571 43.2912 32.9875 43.2023 33.1832L42.1411 35.5185C41.9065 36.0354 41.9065 36.6282 42.1411 37.1447L43.202 39.4801C43.2912 39.6762 43.2455 39.9062 43.0883 40.0531Z" fill="#081B36"/>
<path d="M38.5269 37.0788C38.1252 37.0331 37.7616 37.3203 37.7147 37.722C37.0178 43.7244 31.9286 48.2506 25.8762 48.2506C19.8204 48.2506 14.7308 43.7214 14.0369 37.7155C13.9904 37.3138 13.6272 37.0247 13.2251 37.072C12.8234 37.1185 12.535 37.4817 12.5816 37.8837C13.3609 44.6289 19.0765 49.7154 25.8762 49.7154C32.6721 49.7154 38.3872 44.6319 39.17 37.8906C39.2166 37.4889 38.9286 37.1254 38.5269 37.0788Z" fill="#081B36"/>
<path d="M25.8764 22.948C19.0744 22.948 13.3585 28.0364 12.581 34.7842C12.5349 35.1859 12.8233 35.5491 13.2249 35.5956C13.2536 35.5991 13.2818 35.6006 13.3096 35.6006C13.6766 35.6006 13.9932 35.3252 14.0363 34.9517C14.7287 28.9436 19.8186 24.4128 25.8764 24.4128C31.9326 24.4128 37.0226 28.9424 37.7157 34.949C37.7622 35.3507 38.125 35.6391 38.5274 35.5926C38.9295 35.5464 39.2175 35.1829 39.171 34.7812C38.3924 28.0353 32.6768 22.948 25.8764 22.948Z" fill="#081B36"/>
<path d="M38.4773 53.5647C38.2572 53.2252 37.8032 53.1287 37.4641 53.3488C37.1246 53.5689 37.0281 54.0224 37.2482 54.362L41.8331 61.4287L37.1723 60.7775C36.531 60.6879 35.897 60.9858 35.5575 61.5366L32.8441 65.9327L28.0948 58.6127C27.8747 58.2732 27.4211 58.1766 27.082 58.3968C26.7425 58.6169 26.646 59.0704 26.8661 59.4099L31.7119 66.8787C31.9629 67.2655 32.386 67.4952 32.846 67.4952H32.8617C33.3278 67.4898 33.7524 67.2499 33.9977 66.8532L36.8038 62.3057C36.8389 62.2492 36.9041 62.2187 36.9693 62.2279L41.8739 62.9134C42.4049 62.9881 42.9138 62.7528 43.2022 62.3003C43.4902 61.8479 43.4879 61.2875 43.1961 60.8378L38.4773 53.5647Z" fill="#081B36"/>
</g>
<defs>
<linearGradient id="paint0_linear_7340_13799" x1="39.6128" y1="0" x2="39.6128" y2="73" gradientUnits="userSpaceOnUse">
<stop stop-color="#081B36"/>
<stop offset="1" stop-color="#C4C4C4" stop-opacity="0.31"/>
</linearGradient>
<clipPath id="clip0_7340_13799">
<rect width="50" height="50" fill="white" transform="translate(0.887207 17.4954)"/>
</clipPath>
</defs>
</svg>
