<svg width="73" height="74" viewBox="0 0 73 74" fill="none" xmlns="http://www.w3.org/2000/svg">
<path d="M34 1.61134C35.547 0.71818 37.453 0.71818 39 1.61134L65.6099 16.9746C67.1569 17.8678 68.1099 19.5184 68.1099 21.3047V52.0312C68.1099 53.8175 67.1569 55.4682 65.6099 56.3613L39 71.7246C37.453 72.6178 35.547 72.6178 34 71.7246L7.39007 56.3613C5.84307 55.4682 4.89007 53.8175 4.89007 52.0312V21.3047C4.89007 19.5184 5.84307 17.8678 7.39007 16.9746L34 1.61134Z" fill="url(#paint0_linear_7340_13766)"/>
<g clip-path="url(#clip0_7340_13766)">
<path d="M27.1005 63.0549L25.9148 64.2406C25.3881 64.7672 25.7685 65.6632 26.5041 65.6632C26.7173 65.6632 26.9306 65.5819 27.0933 65.4192L29.6975 62.815C30.023 62.4896 30.023 61.962 29.6975 61.6366L27.0933 59.0324C26.7679 58.707 26.2403 58.707 25.9149 59.0324C25.5894 59.3578 25.5894 59.8854 25.9149 60.2108L27.0921 61.388C15.8226 61.2004 6.71239 51.9765 6.71239 40.6632C6.71239 35.9883 8.23114 31.5757 11.1044 27.9026C11.3879 27.5401 11.324 27.0164 10.9614 26.7328C10.599 26.4494 10.0752 26.5132 9.79156 26.8758C6.68687 30.8449 5.04573 35.6125 5.04573 40.6632C5.04573 52.9281 14.8785 62.8735 27.1005 63.0549ZM12.517 25.9339C11.7707 25.9339 11.3971 25.0174 11.9415 24.4977C12.3191 24.1362 12.8378 24.192 13.1375 24.5035C13.6656 25.0526 13.2323 25.9339 12.517 25.9339ZM32.0249 45.5591H34.5249C34.9851 45.5591 35.3582 45.9322 35.3582 46.3924C35.3582 46.8526 34.9851 47.2257 34.5249 47.2257H32.0249C31.5647 47.2257 31.1916 46.8526 31.1916 46.3924C31.1916 45.9322 31.5647 45.5591 32.0249 45.5591ZM18.1707 51.6007C18.1707 51.1405 18.5439 50.7674 19.0041 50.7674H35.8791C36.798 50.7674 37.5457 50.0197 37.5457 49.1007V32.2257C37.5457 31.3068 36.798 30.5591 35.8791 30.5591H31.6082V36.3924C31.6082 37.0203 30.9382 37.4227 30.384 37.1283L27.4416 35.5651L24.4992 37.1282C23.9446 37.4229 23.2749 37.0198 23.2749 36.3924V33.4757C23.2749 33.0155 23.648 32.6424 24.1082 32.6424C24.5684 32.6424 24.9416 33.0155 24.9416 33.4757V35.006L27.0506 33.8856C27.2952 33.7557 27.588 33.7557 27.8326 33.8856L29.9416 35.006V30.5591H19.0041C18.0851 30.5591 17.3374 31.3068 17.3374 32.2257V47.0174C17.3374 47.4776 16.9643 47.8507 16.5041 47.8507C16.0439 47.8507 15.6707 47.4776 15.6707 47.0174V32.2257C15.6707 30.3877 17.166 28.8924 19.0041 28.8924H35.8791C37.7171 28.8924 39.2124 30.3877 39.2124 32.2257V49.1007C39.2124 50.9387 37.7171 52.4341 35.8791 52.4341H19.0041C18.5439 52.4341 18.1707 52.0609 18.1707 51.6007ZM48.1707 40.6632C48.1707 29.35 39.0605 20.1259 27.7911 19.9385L28.9683 21.1157C29.495 21.6422 29.1147 22.5382 28.3791 22.5382C28.1658 22.5382 27.9525 22.4569 27.7898 22.2942L25.1856 19.69C24.8601 19.3646 24.8601 18.837 25.1856 18.5116L27.7898 15.9074C28.1152 15.582 28.6428 15.582 28.9682 15.9074C29.2938 16.2328 29.2938 16.7604 28.9682 17.0858L27.7825 18.2716C39.9965 18.4527 49.8374 28.3903 49.8374 40.6632C49.8374 45.7139 48.1964 50.4816 45.0916 54.4507C44.8078 54.8135 44.284 54.8771 43.9218 54.5937C43.5593 54.3102 43.4952 53.7865 43.7788 53.424C46.6521 49.7507 48.1707 45.3381 48.1707 40.6632ZM42.9691 55.6505C43.2682 55.964 43.3004 56.4854 42.9239 56.8457C42.5923 57.1647 42.0648 57.1547 41.7455 56.8228C41.4265 56.491 41.4368 55.9635 41.7684 55.6445C42.1519 55.2777 42.6716 55.3387 42.9691 55.6505Z" fill="#081B36"/>
</g>
<defs>
<linearGradient id="paint0_linear_7340_13766" x1="36.5" y1="0.167969" x2="36.5" y2="73.168" gradientUnits="userSpaceOnUse">
<stop stop-color="#081B36"/>
<stop offset="1" stop-color="#C4C4C4" stop-opacity="0.31"/>
</linearGradient>
<clipPath id="clip0_7340_13766">
<rect width="50" height="50" fill="white" transform="matrix(-1 0 0 1 52.4414 15.6633)"/>
</clipPath>
</defs>
</svg>
