<svg width="73" height="74" viewBox="0 0 73 74" fill="none" xmlns="http://www.w3.org/2000/svg">
<path d="M34 1.61134C35.547 0.71818 37.453 0.71818 39 1.61134L65.6099 16.9746C67.1569 17.8678 68.1099 19.5184 68.1099 21.3047V52.0312C68.1099 53.8175 67.1569 55.4682 65.6099 56.3613L39 71.7246C37.453 72.6178 35.547 72.6178 34 71.7246L7.39007 56.3613C5.84307 55.4682 4.89007 53.8175 4.89007 52.0312V21.3047C4.89007 19.5184 5.84307 17.8678 7.39007 16.9746L34 1.61134Z" fill="url(#paint0_linear_7340_13755)"/>
<g clip-path="url(#clip0_7340_13755)">
<path d="M27.2754 18.5059C13.7446 18.5059 2.77539 29.475 2.77539 43.0059C2.77539 56.5367 13.7446 67.5059 27.2754 67.5059C40.8062 67.5059 51.7754 56.5367 51.7754 43.0059C51.7602 29.4814 40.7998 18.521 27.2754 18.5059ZM27.2754 65.8725C14.6466 65.8725 4.40872 55.6347 4.40872 43.0059C4.40872 30.377 14.6466 20.1392 27.2754 20.1392C39.9042 20.1392 50.1421 30.377 50.1421 43.0059C50.1277 55.6287 39.8982 65.8582 27.2754 65.8725Z" fill="#081B36"/>
<path d="M15.917 41.4543C15.9724 41.4654 16.029 41.4714 16.0852 41.4714C16.4712 41.4706 16.8042 41.1999 16.8832 40.8222C16.9857 40.3381 17.122 39.8624 17.2915 39.3979C17.3948 39.1227 17.3421 38.8133 17.1539 38.5876C16.9657 38.3619 16.6706 38.255 16.3815 38.3072C16.092 38.3599 15.8536 38.5636 15.7563 38.8408C15.5621 39.3779 15.4054 39.9282 15.2881 40.4873C15.1956 40.9279 15.4767 41.3602 15.917 41.4543Z" fill="#081B36"/>
<path d="M18.0077 37.1258C18.2701 37.1262 18.5162 37.0009 18.6701 36.7888C18.9608 36.388 19.2782 36.008 19.6207 35.6511C19.933 35.3257 19.9226 34.8085 19.5972 34.4963C19.2718 34.1841 18.7546 34.1944 18.4424 34.5198C18.0476 34.9294 17.682 35.366 17.3482 35.8266C17.1679 36.075 17.142 36.4032 17.2812 36.6763C17.4204 36.9499 17.7011 37.1222 18.0077 37.1226V37.1258Z" fill="#081B36"/>
<path d="M21.5325 33.9353C21.676 33.9349 21.8172 33.8966 21.9408 33.8241C22.3663 33.5748 22.8093 33.3563 23.2663 33.1709C23.6846 33.001 23.8856 32.5241 23.7157 32.1058C23.5454 31.6879 23.0689 31.4869 22.6506 31.6568C22.123 31.8721 21.6106 32.1241 21.1177 32.4105C20.7987 32.5959 20.6432 32.9719 20.7389 33.3284C20.8342 33.6849 21.1572 33.9329 21.5261 33.9337L21.5325 33.9353Z" fill="#081B36"/>
<path d="M39.0461 39.6463C39.0413 39.6248 39.0461 39.6045 39.0401 39.5833C39.0257 39.5311 39.005 39.4796 38.9898 39.4274C38.9743 39.3752 38.9504 39.3106 38.9316 39.2516C38.8327 38.9461 38.7219 38.6442 38.5994 38.3452C38.5771 38.2913 38.556 38.2367 38.5333 38.1817C38.5037 38.1139 38.4802 38.0445 38.4515 37.9775C38.4372 37.9552 38.4216 37.9336 38.4049 37.9133C37.9487 36.9132 37.3601 35.9793 36.6547 35.1363C36.6451 35.1236 36.6427 35.1072 36.632 35.094C36.2639 34.6602 35.8663 34.2523 35.442 33.873C35.4157 33.8559 35.3886 33.8399 35.3603 33.8256C34.55 33.1114 33.6488 32.5073 32.6802 32.0292C32.6583 32.0096 32.6352 31.9921 32.6108 31.9761C32.4537 31.9 32.2922 31.8338 32.1311 31.7644C32.0849 31.744 32.039 31.7221 31.9915 31.7026C31.6721 31.5694 31.3507 31.4454 31.023 31.3405C31.0142 31.3405 31.0058 31.3405 30.997 31.3405C29.9411 31.0079 28.8449 30.8201 27.7383 30.783C27.7132 30.783 27.6917 30.7667 27.6666 30.7659C27.5848 30.7659 27.4975 30.7659 27.4141 30.7659C27.3675 30.7659 27.3228 30.7583 27.2762 30.7583C27.263 30.7583 27.2526 30.7651 27.2395 30.7659C26.8124 30.7647 26.3853 30.7854 25.9607 30.8285C25.5308 30.8755 25.2122 31.2496 25.2341 31.6814C25.2556 32.1129 25.6097 32.453 26.0424 32.457C26.0715 32.457 26.1006 32.4554 26.1297 32.4522C26.5468 32.41 26.9663 32.3916 27.3854 32.3972C28.7544 32.4084 30.1074 32.6859 31.3703 33.2139L31.4592 33.2534C32.5981 33.7466 33.642 34.4349 34.5436 35.2874C34.7641 35.4952 34.9731 35.7121 35.1741 35.941C35.9473 36.7976 36.5757 37.7741 37.0347 38.8329C37.0526 38.8735 37.0682 38.9146 37.0853 38.9561C37.1942 39.2169 37.2915 39.4828 37.3776 39.754C37.394 39.8046 37.4119 39.8553 37.4275 39.9059C37.7353 40.9104 37.892 41.9552 37.892 43.0059C37.892 43.3325 37.8717 43.6543 37.843 43.9729C37.8358 44.0547 37.8266 44.136 37.8179 44.2177C37.5056 46.9353 36.155 49.4272 34.0488 51.1726L34.0057 51.2093C32.9578 52.0714 31.7543 52.7242 30.4603 53.1325C30.4236 53.1441 30.3853 53.1536 30.3486 53.1644C30.0799 53.2461 29.8063 53.3155 29.532 53.3761L29.3294 53.4192C23.661 54.5429 18.1381 50.9166 16.9159 45.2689L18.7438 46.1908C19.1474 46.3926 19.6379 46.2287 19.8396 45.8252C20.0414 45.4212 19.8775 44.9307 19.4736 44.729L16.2069 43.0956C16.0961 43.0414 15.974 43.0135 15.85 43.0139C15.8385 43.0103 15.8265 43.0075 15.8141 43.0059C15.7906 43.0111 15.7671 43.0179 15.744 43.0254C15.6594 43.0342 15.5765 43.0565 15.4991 43.0916C15.332 43.165 15.1949 43.2926 15.1103 43.4541L13.477 46.7208C13.2752 47.1247 13.4391 47.6152 13.8427 47.817C14.2466 48.0184 14.7371 47.8549 14.9388 47.4509L15.4967 46.3356C15.7284 47.1562 16.047 47.9502 16.4474 48.7038C16.453 48.7266 16.4597 48.7489 16.4677 48.7708C16.7361 49.2741 17.0395 49.7574 17.3757 50.2179C17.396 50.2458 17.4279 50.257 17.4511 50.2817C18.0859 51.1303 18.8268 51.8943 19.6558 52.5543C19.6837 52.5938 19.7152 52.6304 19.7499 52.6639C20.1981 53.0164 20.6707 53.3367 21.1643 53.6226C21.2249 53.6581 21.2899 53.6856 21.3577 53.7043C22.2697 54.2123 23.2431 54.6019 24.2536 54.8631C24.2775 54.8763 24.3022 54.8878 24.3273 54.8982C24.8812 55.035 25.4439 55.1331 26.0113 55.1913H26.0926C26.4838 55.2308 26.8794 55.2527 27.2794 55.2527C27.9449 55.2483 28.6088 55.1893 29.2648 55.0769H29.2748C29.3226 55.0773 29.3705 55.0729 29.4175 55.0641C29.4885 55.0517 29.5579 55.033 29.6289 55.019C29.7198 55.0019 29.8087 54.9816 29.8984 54.962C30.2079 54.895 30.5129 54.8161 30.814 54.7259C30.8615 54.712 30.9097 54.7004 30.956 54.6857C31.0026 54.6713 31.0377 54.6637 31.0752 54.6514C31.0939 54.645 31.1063 54.631 31.1234 54.6239C32.1774 54.2769 33.1791 53.7877 34.101 53.17C34.1126 53.1628 34.1249 53.1612 34.1361 53.1536C34.4491 52.9423 34.7494 52.7094 35.0437 52.4685C35.0624 52.453 35.0804 52.4366 35.0999 52.4211C35.2271 52.315 35.3571 52.2121 35.4795 52.1021C35.5015 52.0762 35.5214 52.049 35.5393 52.0203C36.3249 51.3022 37.014 50.4851 37.5898 49.5899C37.6197 49.5584 37.6468 49.5249 37.6715 49.4894C37.9734 49.0061 38.2414 48.5025 38.4734 47.9817C38.4818 47.9637 38.4794 47.945 38.4858 47.927C38.9256 46.9253 39.2279 45.8682 39.3842 44.7856C39.3946 44.7589 39.4038 44.7314 39.4109 44.7038C39.4249 44.6049 39.4313 44.5045 39.4428 44.4048C39.4544 44.3051 39.464 44.209 39.4731 44.1109C39.5066 43.7416 39.5294 43.3708 39.5294 43.0003V42.9529C39.5294 42.9481 39.5294 42.9429 39.5294 42.9373C39.519 41.8232 39.3567 40.7158 39.0461 39.6463Z" fill="#081B36"/>
<path d="M27.2752 35.6558C26.8242 35.6558 26.4585 36.0214 26.4585 36.4724V43.0058C26.4585 43.2223 26.5446 43.43 26.6978 43.5832L29.9644 46.8498C30.285 47.1593 30.7942 47.1549 31.1093 46.8399C31.4243 46.5248 31.4287 46.0156 31.1192 45.695L28.0918 42.6676V36.4724C28.0918 36.0214 27.7262 35.6558 27.2752 35.6558Z" fill="#081B36"/>
</g>
<defs>
<linearGradient id="paint0_linear_7340_13755" x1="36.5" y1="0.167969" x2="36.5" y2="73.168" gradientUnits="userSpaceOnUse">
<stop stop-color="#081B36"/>
<stop offset="1" stop-color="#C4C4C4" stop-opacity="0.31"/>
</linearGradient>
<clipPath id="clip0_7340_13755">
<rect width="49" height="49" fill="white" transform="translate(2.77539 18.5059)"/>
</clipPath>
</defs>
</svg>
