<svg width="73" height="73" viewBox="0 0 73 73" fill="none" xmlns="http://www.w3.org/2000/svg">
<path d="M34 1.44338C35.547 0.550211 37.453 0.550212 39 1.44338L65.6099 16.8066C67.1569 17.6998 68.1099 19.3504 68.1099 21.1368V51.8633C68.1099 53.6496 67.1569 55.3002 65.6099 56.1934L39 71.5566C37.453 72.4498 35.547 72.4498 34 71.5566L7.39007 56.1934C5.84307 55.3002 4.89007 53.6496 4.89007 51.8632V21.1367C4.89007 19.3504 5.84307 17.6998 7.39007 16.8066L34 1.44338Z" fill="url(#paint0_linear_7340_13772)"/>
<g clip-path="url(#clip0_7340_13772)">
<path d="M45.0251 55.6814C43.7421 55.6814 42.6982 56.7252 42.6982 58.0083C42.6982 59.2913 43.742 60.3351 45.0251 60.3351C46.3082 60.3351 47.352 59.2913 47.352 58.0083C47.352 56.7253 46.3082 55.6814 45.0251 55.6814ZM45.0251 58.9561C44.5025 58.9561 44.0772 58.5309 44.0772 58.0083C44.0772 57.4857 44.5025 57.0605 45.0251 57.0605C45.5477 57.0605 45.9729 57.4857 45.9729 58.0083C45.9729 58.5309 45.5477 58.9561 45.0251 58.9561Z" fill="#081B36"/>
<path d="M51.2941 57.8877C51.2502 56.1841 50.5291 54.6172 49.2637 53.4758L35.3812 40.9545L47.6558 28.6798C47.7365 28.6558 47.8162 28.6258 47.8931 28.5852L50.5512 27.1823C50.9184 26.9884 51.1647 26.6416 51.2266 26.231C51.2887 25.8204 51.1559 25.4165 50.8622 25.1225L47.8694 22.1298C47.5757 21.8361 47.172 21.7033 46.761 21.7654C46.3505 21.8274 46.0037 22.0736 45.8098 22.4409L44.4068 25.0988C44.3658 25.1764 44.3343 25.2567 44.3102 25.3381L38.5164 31.1319C38.2471 31.4013 38.2471 31.8377 38.5164 32.1071C38.7858 32.3762 39.2223 32.3762 39.4916 32.1071L44.8083 26.7904L46.2017 28.1837L32.605 41.7804L31.2116 40.387L37.1465 34.4523C37.4158 34.1829 37.4158 33.7465 37.1465 33.4771C36.8771 33.208 36.4406 33.208 36.1712 33.4771L31.8651 37.7832L27.1786 33.5562C28.5073 29.7315 27.5451 25.4763 24.6627 22.594C21.7104 19.6417 17.2814 18.7008 13.3793 20.1973C13.1612 20.281 13.0003 20.4693 12.9518 20.6977C12.9032 20.9261 12.9735 21.1636 13.1386 21.3288L18.552 26.7422C18.7121 26.9023 18.8004 27.1153 18.8004 27.3418C18.8004 27.5683 18.7122 27.7812 18.552 27.9415L15.0364 31.457C14.8763 31.6172 14.6633 31.7055 14.4368 31.7055C14.2103 31.7055 13.9974 31.6173 13.8372 31.457L8.42372 26.0436C8.25848 25.8784 8.02118 25.8082 7.79266 25.8567C7.56424 25.9053 7.37597 26.0661 7.2923 26.2842C5.79579 30.1862 6.73666 34.6152 9.68908 37.5677C12.5008 40.3793 16.6736 41.3692 20.438 40.1529L24.0615 44.1153C23.8874 44.4555 23.661 44.7728 23.3817 45.052C22.3372 46.0965 20.7718 46.4256 19.3933 45.8905C19.1385 45.7913 18.8494 45.8523 18.656 46.0456L10.2133 54.4883C7.92784 56.7739 7.92784 60.4927 10.2133 62.7781C11.3207 63.8857 12.7928 64.4953 14.3585 64.4953C15.9242 64.4953 17.3964 63.8857 18.5035 62.7785L26.9462 54.3359C27.1394 54.1426 27.2003 53.8535 27.1014 53.5987C26.5662 52.2202 26.8953 50.6546 27.9397 49.6101C28.9843 48.5656 30.5498 48.2365 31.9283 48.7716C32.1833 48.8708 32.4722 48.8096 32.6655 48.6165L34.2581 47.0239C34.7376 46.5444 35.0017 45.9067 35.0017 45.2287C35.0017 44.5506 34.7376 43.9129 34.2581 43.4334L33.5802 42.7555L34.4049 41.9308L48.3401 54.4998C49.322 55.3855 49.8816 56.6014 49.9157 57.9232C49.9497 59.2451 49.4534 60.4882 48.5184 61.4231C47.5878 62.3539 46.3479 62.8492 45.0347 62.8209C43.7189 62.7915 42.5052 62.2404 41.617 61.2691L31.2557 49.9387C30.9984 49.6576 30.5625 49.6382 30.2815 49.8952C30.0005 50.1523 29.981 50.5884 30.238 50.8694L40.5992 62.1998C41.7439 63.4515 43.3082 64.1616 45.0039 64.1995C45.0513 64.2006 45.0987 64.2011 45.1461 64.2011C46.7886 64.2011 48.3276 63.564 49.4935 62.3983C50.6985 61.1932 51.3379 59.5913 51.2941 57.8877ZM45.6556 25.6872L46.9756 23.1864L49.8056 26.0164L47.3048 27.3364L45.6556 25.6872ZM21.1495 38.8874C20.9596 38.68 20.6631 38.6085 20.3996 38.7067C17.0279 39.9645 13.2062 39.1346 10.6641 36.5928C8.35596 34.2845 7.46158 30.9382 8.2497 27.82L12.8619 32.4322C13.2827 32.8529 13.8419 33.0845 14.4368 33.0845C15.0316 33.0845 15.5908 32.8529 16.0115 32.4322L19.527 28.9167C19.9477 28.496 20.1793 27.9367 20.1793 27.3419C20.1793 26.747 19.9477 26.1878 19.527 25.7671L14.9149 21.1547C18.0328 20.3663 21.3795 21.2609 23.6876 23.5692C26.2943 26.1757 27.0954 30.0733 25.7286 33.4989C25.6216 33.7669 25.6928 34.0732 25.9072 34.2664L30.8887 38.7596L30.2364 39.4119L29.5585 38.734C29.079 38.2545 28.4413 37.9904 27.7633 37.9904C27.0852 37.9904 26.4475 38.2545 25.968 38.734L24.3754 40.3266C24.1822 40.5198 24.1213 40.809 24.2203 41.0638C24.4037 41.5362 24.4833 42.0303 24.4696 42.5182L21.1495 38.8874ZM33.2828 46.0488L31.9924 47.3393C30.2177 46.8277 28.2866 47.313 26.9646 48.6349H26.9645C25.6426 49.9568 25.1572 51.8877 25.669 53.6627L17.5284 61.8032C16.6817 62.6499 15.556 63.1163 14.3586 63.1163C13.1613 63.1163 12.0354 62.6499 11.1888 61.8032C9.44096 60.0554 9.44096 57.2114 11.1888 55.4635L19.3294 47.323C21.1042 47.8349 23.0351 47.3492 24.3571 46.0273C25.679 44.7054 26.1645 42.7745 25.6527 40.9995L26.9432 39.7091C27.3953 39.2569 28.1313 39.2569 28.5834 39.7091L29.7489 40.8747L32.1173 43.243L33.2828 44.4086C33.7351 44.8608 33.7351 45.5967 33.2828 46.0488Z" fill="#081B36"/>
<path d="M20.7105 49.9275C20.4411 49.6583 20.0047 49.6583 19.7353 49.9275L13.2034 56.4593C12.9341 56.7287 12.9341 57.1652 13.2034 57.4346C13.3381 57.5691 13.5147 57.6365 13.6911 57.6365C13.8675 57.6365 14.044 57.5691 14.1787 57.4346L20.7105 50.9027C20.9797 50.6333 20.9797 50.1968 20.7105 49.9275Z" fill="#081B36"/>
<path d="M23.1236 52.3408C22.8543 52.0716 22.4178 52.0716 22.1484 52.3408L15.6165 58.8726C15.3472 59.142 15.3472 59.5784 15.6165 59.8478C15.7512 59.9824 15.9277 60.0497 16.1041 60.0497C16.2805 60.0497 16.4571 59.9824 16.5918 59.8478L23.1236 53.3161C23.3929 53.0467 23.3929 52.6102 23.1236 52.3408Z" fill="#081B36"/>
</g>
<defs>
<linearGradient id="paint0_linear_7340_13772" x1="36.5" y1="0" x2="36.5" y2="73" gradientUnits="userSpaceOnUse">
<stop stop-color="#081B36"/>
<stop offset="1" stop-color="#C4C4C4" stop-opacity="0.31"/>
</linearGradient>
<clipPath id="clip0_7340_13772">
<rect width="45" height="45" fill="white" transform="translate(6.44336 19.4954)"/>
</clipPath>
</defs>
</svg>
