<svg width="75" height="73" viewBox="0 0 75 73" fill="none" xmlns="http://www.w3.org/2000/svg">
<path d="M35.5127 1.44338C37.0597 0.550211 38.9657 0.550212 40.5127 1.44338L67.1226 16.8066C68.6696 17.6998 69.6226 19.3504 69.6226 21.1368V51.8633C69.6226 53.6496 68.6696 55.3002 67.1226 56.1934L40.5127 71.5566C38.9657 72.4498 37.0597 72.4498 35.5127 71.5566L8.90277 56.1934C7.35576 55.3002 6.40277 53.6496 6.40277 51.8632V21.1367C6.40277 19.3504 7.35576 17.6998 8.90277 16.8066L35.5127 1.44338Z" fill="url(#paint0_linear_7340_13789)"/>
<path d="M42.8665 37.8662C42.9227 37.3603 42.8645 36.8481 42.696 36.3677C42.5276 35.8873 42.2532 35.4509 41.8934 35.0908C41.5335 34.7307 41.0973 34.4562 40.617 34.2874C40.1366 34.1187 39.6245 34.0601 39.1185 34.116C39.132 33.9929 39.1388 33.8692 39.139 33.7454C39.139 32.8433 38.7806 31.978 38.1427 31.3401C37.5047 30.7022 36.6395 30.3438 35.7373 30.3438C35.6135 30.344 35.4898 30.3508 35.3668 30.3642C35.4437 29.6642 35.3013 28.9575 34.9593 28.3418C34.6173 27.7261 34.0925 27.2318 33.4574 26.9273C32.8224 26.6227 32.1084 26.5229 31.4142 26.6417C30.72 26.7604 30.0798 27.0918 29.582 27.5901L27.0167 30.1554C26.6346 29.6466 26.2173 29.1653 25.7677 28.7151L22.7677 25.7151C21.6325 24.5799 20.0928 23.9421 18.4874 23.9421C16.8819 23.9421 15.3422 24.5799 14.207 25.7151C14.1374 25.7847 14.0821 25.8674 14.0444 25.9584C14.0067 26.0494 13.9873 26.1469 13.9873 26.2454C13.9873 26.3439 14.0067 26.4414 14.0444 26.5324C14.0821 26.6234 14.1374 26.7061 14.207 26.7757L15.2941 27.8628C16.6909 29.2632 17.6938 31.0072 18.2014 32.9189C18.7091 34.8306 18.7037 36.8423 18.1856 38.7513C17.8881 39.8422 17.7374 40.968 17.7373 42.0988V46.9347L16.2373 48.4348L16.0177 48.2151C15.877 48.0745 15.6863 47.9954 15.4873 47.9954C15.2884 47.9954 15.0977 48.0745 14.957 48.2151L12.4873 50.6848L12.2677 50.4651C12.127 50.3245 11.9363 50.2454 11.7373 50.2454C11.5384 50.2454 11.3477 50.3245 11.207 50.4651L2.20703 59.4651L3.26767 60.5257L11.7373 52.0561L24.1767 64.4954L20.957 67.7151L22.0177 68.7757L25.7677 65.0257C25.8373 64.9561 25.8926 64.8734 25.9303 64.7824C25.968 64.6914 25.9874 64.5939 25.9874 64.4954C25.9874 64.3969 25.968 64.2994 25.9303 64.2084C25.8926 64.1174 25.8373 64.0347 25.7677 63.9651L24.798 62.9954L27.2677 60.5257C27.3373 60.4561 27.3926 60.3734 27.4303 60.2824C27.468 60.1914 27.4874 60.0939 27.4874 59.9954C27.4874 59.8969 27.468 59.7994 27.4303 59.7084C27.3926 59.6174 27.3373 59.5347 27.2677 59.4651L25.548 57.7454L27.048 56.2454H32.7373C32.8358 56.2454 32.9334 56.226 33.0244 56.1883C33.1154 56.1506 33.198 56.0954 33.2677 56.0257L40.7677 48.5257L40.7383 48.4963C40.8819 48.3918 41.0171 48.2763 41.1427 48.1507L45.6427 43.6507C46.1411 43.1529 46.4725 42.5125 46.5912 41.8181C46.7098 41.1237 46.6099 40.4095 46.305 39.7744C46.0002 39.1393 45.5057 38.6146 44.8897 38.2727C44.2737 37.9309 43.5667 37.7888 42.8665 37.8662ZM39.4873 35.5946C39.8635 35.5944 40.2312 35.7057 40.544 35.9146C40.8568 36.1234 41.1007 36.4204 41.2446 36.7679C41.3886 37.1153 41.4262 37.4977 41.3528 37.8666C41.2793 38.2355 41.0981 38.5743 40.832 38.8401L36.332 43.3401C35.9754 43.6967 35.4917 43.8971 34.9873 43.8971C34.483 43.8971 33.9993 43.6967 33.6427 43.3401C33.286 42.9835 33.0857 42.4998 33.0857 41.9954C33.0857 41.4911 33.286 41.0074 33.6427 40.6507L38.1427 36.1507C38.3191 35.9741 38.5288 35.834 38.7595 35.7386C38.9903 35.6431 39.2376 35.5942 39.4873 35.5946ZM37.082 32.4007C37.4381 32.7577 37.6381 33.2412 37.6381 33.7454C37.6381 34.2496 37.4381 34.7332 37.082 35.0901L32.582 39.5901C32.2254 39.9467 31.7417 40.1471 31.2373 40.1471C30.733 40.1471 30.2493 39.9467 29.8927 39.5901C29.536 39.2335 29.3357 38.7498 29.3357 38.2454C29.3357 37.7411 29.536 37.2574 29.8927 36.9007L34.3927 32.4007C34.7496 32.0447 35.2332 31.8447 35.7373 31.8447C36.2415 31.8447 36.7251 32.0447 37.082 32.4007ZM30.6427 28.6507C30.9993 28.2941 31.483 28.0938 31.9873 28.0938C32.4917 28.0938 32.9754 28.2941 33.332 28.6507C33.6887 29.0074 33.889 29.4911 33.889 29.9954C33.889 30.4998 33.6887 30.9835 33.332 31.3401L28.832 35.8401C28.6554 36.0167 28.4458 36.1568 28.2151 36.2523C27.9844 36.3479 27.7371 36.3971 27.4873 36.3971C27.2376 36.3971 26.9903 36.3479 26.7596 36.2523C26.5289 36.1568 26.3193 36.0167 26.1427 35.8401C25.9661 35.6635 25.826 35.4539 25.7304 35.2232C25.6349 34.9924 25.5857 34.7452 25.5857 34.4954C25.5857 34.2457 25.6349 33.9984 25.7304 33.7677C25.826 33.537 25.9661 33.3273 26.1427 33.1507L30.6427 28.6507ZM23.7373 61.9348L13.548 51.7454L15.4873 49.8061L25.6767 59.9954L23.7373 61.9348ZM32.4267 54.7454H26.7373C26.6389 54.7454 26.5413 54.7648 26.4503 54.8025C26.3593 54.8402 26.2767 54.8955 26.207 54.9651L24.4873 56.6848L17.298 49.4954L19.0177 47.7757C19.0873 47.7061 19.1426 47.6234 19.1803 47.5324C19.218 47.4414 19.2374 47.3439 19.2373 47.2454V42.0988C19.2374 41.1013 19.3704 40.1082 19.6328 39.1459C20.2201 36.9818 20.2262 34.7012 19.6507 32.534C19.0752 30.3668 17.9383 28.3897 16.3547 26.8022L15.8417 26.2891C16.7193 25.6644 17.7898 25.3706 18.8634 25.4597C19.9369 25.5488 20.9443 26.015 21.707 26.7757L24.707 29.7757C25.1572 30.2262 25.5711 30.7116 25.9447 31.2274L25.082 32.0901C24.5832 32.5876 24.2513 33.2279 24.1322 33.9223C24.0132 34.6168 24.1129 35.331 24.4176 35.9663C24.7222 36.6016 25.2168 37.1265 25.8328 37.4684C26.4488 37.8103 27.1559 37.9523 27.8562 37.8748C27.8427 37.9979 27.8359 38.1216 27.8357 38.2454C27.8345 38.806 27.9725 39.358 28.2373 39.8521V40.4421C28.2417 42.0256 27.9319 43.5943 27.3259 45.0572C26.7199 46.5202 25.8298 47.8485 24.707 48.9651L25.7677 50.0257C28.1108 47.6956 29.5143 44.5847 29.7106 41.286C30.1843 41.5242 30.7072 41.6479 31.2373 41.6471C31.3611 41.6469 31.4848 41.64 31.6079 41.6266C31.5518 42.1326 31.6103 42.6448 31.779 43.1252C31.9477 43.6056 32.2222 44.0419 32.5823 44.4018C32.9425 44.7617 33.3789 45.036 33.8594 45.2044C34.3399 45.3728 34.8521 45.431 35.3582 45.3746C35.2639 46.2228 35.4925 47.0754 35.9985 47.7627C36.5045 48.45 37.2507 48.9215 38.0886 49.0835L32.4267 54.7454ZM44.582 42.5901L40.082 47.0901C39.7254 47.4467 39.2417 47.6471 38.7373 47.6471C38.233 47.6471 37.7493 47.4467 37.3927 47.0901C37.036 46.7335 36.8357 46.2498 36.8357 45.7454C36.8357 45.2411 37.036 44.7574 37.3927 44.4007L41.8927 39.9007C42.2493 39.5441 42.733 39.3438 43.2373 39.3438C43.7417 39.3438 44.2254 39.5441 44.582 39.9007C44.9387 40.2574 45.139 40.7411 45.139 41.2454C45.139 41.7498 44.9387 42.2335 44.582 42.5901Z" fill="#081B36"/>
<path d="M44.7373 59.9954C43.7431 59.9942 42.7899 59.5988 42.0869 58.8958C41.3839 58.1928 40.9884 57.2396 40.9873 56.2454C40.9873 56.0464 40.9083 55.8557 40.7676 55.715C40.627 55.5744 40.4362 55.4954 40.2373 55.4954C40.0384 55.4954 39.8476 55.5744 39.707 55.715C39.5663 55.8557 39.4873 56.0464 39.4873 56.2454C39.4862 57.2396 39.0907 58.1928 38.3877 58.8958C37.6847 59.5988 36.7315 59.9942 35.7373 59.9954C35.5384 59.9954 35.3476 60.0744 35.207 60.215C35.0663 60.3557 34.9873 60.5464 34.9873 60.7454C34.9873 60.9443 35.0663 61.135 35.207 61.2757C35.3476 61.4163 35.5384 61.4954 35.7373 61.4954C36.7315 61.4965 37.6847 61.8919 38.3877 62.5949C39.0907 63.298 39.4862 64.2511 39.4873 65.2454C39.4873 65.4443 39.5663 65.635 39.707 65.7757C39.8476 65.9163 40.0384 65.9954 40.2373 65.9954C40.4362 65.9954 40.627 65.9163 40.7676 65.7757C40.9083 65.635 40.9873 65.4443 40.9873 65.2454C40.9884 64.2511 41.3839 63.298 42.0869 62.5949C42.7899 61.8919 43.7431 61.4965 44.7373 61.4954C44.9362 61.4954 45.127 61.4163 45.2676 61.2757C45.4083 61.135 45.4873 60.9443 45.4873 60.7454C45.4873 60.5464 45.4083 60.3557 45.2676 60.215C45.127 60.0744 44.9362 59.9954 44.7373 59.9954ZM40.2373 62.5435C39.793 61.8069 39.1758 61.1897 38.4392 60.7454C39.1758 60.301 39.793 59.6838 40.2373 58.9472C40.6816 59.6838 41.2988 60.301 42.0354 60.7454C41.2988 61.1897 40.6816 61.8069 40.2373 62.5435Z" fill="#081B36"/>
<path d="M46.2373 27.7454C45.4419 27.7445 44.6794 27.4281 44.117 26.8657C43.5546 26.3033 43.2382 25.5407 43.2373 24.7454C43.2373 24.5464 43.1583 24.3557 43.0176 24.215C42.877 24.0744 42.6862 23.9954 42.4873 23.9954C42.2884 23.9954 42.0976 24.0744 41.957 24.215C41.8163 24.3557 41.7373 24.5464 41.7373 24.7454C41.7364 25.5407 41.4201 26.3033 40.8576 26.8657C40.2952 27.4281 39.5327 27.7445 38.7373 27.7454C38.5384 27.7454 38.3476 27.8244 38.207 27.965C38.0663 28.1057 37.9873 28.2964 37.9873 28.4954C37.9873 28.6943 38.0663 28.885 38.207 29.0257C38.3476 29.1663 38.5384 29.2454 38.7373 29.2454C39.5327 29.2463 40.2952 29.5626 40.8576 30.125C41.4201 30.6874 41.7364 31.45 41.7373 32.2454C41.7373 32.4443 41.8163 32.635 41.957 32.7757C42.0976 32.9163 42.2884 32.9954 42.4873 32.9954C42.6862 32.9954 42.877 32.9163 43.0176 32.7757C43.1583 32.635 43.2373 32.4443 43.2373 32.2454C43.2382 31.45 43.5546 30.6874 44.117 30.125C44.6794 29.5626 45.4419 29.2463 46.2373 29.2454C46.4362 29.2454 46.627 29.1663 46.7676 29.0257C46.9083 28.885 46.9873 28.6943 46.9873 28.4954C46.9873 28.2964 46.9083 28.1057 46.7676 27.965C46.627 27.8244 46.4362 27.7454 46.2373 27.7454ZM42.4873 29.7603C42.1538 29.2589 41.7238 28.8289 41.2224 28.4954C41.7238 28.1618 42.1538 27.7318 42.4873 27.2304C42.8208 27.7318 43.2508 28.1618 43.7522 28.4954C43.2508 28.8289 42.8208 29.2589 42.4873 29.7603Z" fill="#081B36"/>
<path d="M6.4873 42.7454C6.4873 42.9443 6.56632 43.135 6.70697 43.2757C6.84763 43.4163 7.03839 43.4954 7.2373 43.4954C7.43622 43.4954 7.62698 43.4163 7.76763 43.2757C7.90829 43.135 7.9873 42.9443 7.9873 42.7454C7.98843 41.7511 8.38387 40.798 9.08689 40.095C9.78991 39.3919 10.7431 38.9965 11.7373 38.9954C11.9362 38.9954 12.127 38.9163 12.2676 38.7757C12.4083 38.635 12.4873 38.4443 12.4873 38.2454C12.4873 38.0464 12.4083 37.8557 12.2676 37.715C12.127 37.5744 11.9362 37.4954 11.7373 37.4954C10.7431 37.4942 9.78991 37.0988 9.08689 36.3958C8.38387 35.6928 7.98843 34.7396 7.9873 33.7454C7.9873 33.5464 7.90829 33.3557 7.76763 33.215C7.62698 33.0744 7.43622 32.9954 7.2373 32.9954C7.03839 32.9954 6.84763 33.0744 6.70697 33.215C6.56632 33.3557 6.4873 33.5464 6.4873 33.7454C6.48618 34.7396 6.09073 35.6928 5.38772 36.3958C4.6847 37.0988 3.73152 37.4942 2.7373 37.4954C2.53839 37.4954 2.34763 37.5744 2.20697 37.715C2.06632 37.8557 1.9873 38.0464 1.9873 38.2454C1.9873 38.4443 2.06632 38.635 2.20697 38.7757C2.34763 38.9163 2.53839 38.9954 2.7373 38.9954C3.73152 38.9965 4.6847 39.3919 5.38772 40.095C6.09073 40.798 6.48618 41.7511 6.4873 42.7454ZM7.2373 36.4472C7.68164 37.1838 8.29883 37.801 9.03545 38.2454C8.29883 38.6897 7.68164 39.3069 7.2373 40.0435C6.79297 39.3069 6.17578 38.6897 5.43916 38.2454C6.17578 37.801 6.79297 37.1838 7.2373 36.4472Z" fill="#081B36"/>
<defs>
<linearGradient id="paint0_linear_7340_13789" x1="38.0127" y1="0" x2="38.0127" y2="73" gradientUnits="userSpaceOnUse">
<stop stop-color="#081B36"/>
<stop offset="1" stop-color="#C4C4C4" stop-opacity="0.31"/>
</linearGradient>
</defs>
</svg>
