<svg width="201" height="58" viewBox="0 0 201 58" fill="none" xmlns="http://www.w3.org/2000/svg">
<line x1="200.5" y1="58" x2="200.5" stroke="black"/>
<rect width="182" height="58" fill="#081B36"/>
<mask id="path-3-outside-1_7340_13739" maskUnits="userSpaceOnUse" x="10" y="15" width="183" height="29" fill="black">
<rect fill="white" x="10" y="15" width="183" height="29"/>
<path d="M31.3706 17.1172V42H26.6538L16.0752 24.7393V42H11.3755V17.1172H16.0752L26.688 34.395V17.1172H31.3706ZM35.0107 32.9424V32.5835C35.0107 31.2277 35.2044 29.9801 35.5918 28.8408C35.9792 27.6901 36.5431 26.6932 37.2837 25.8501C38.0243 25.007 38.93 24.3519 40.001 23.8848C41.0719 23.4062 42.291 23.167 43.6582 23.167C45.0482 23.167 46.2786 23.4062 47.3496 23.8848C48.432 24.3519 49.3434 25.007 50.084 25.8501C50.8245 26.6932 51.3885 27.6901 51.7759 28.8408C52.1632 29.9801 52.3569 31.2277 52.3569 32.5835V32.9424C52.3569 34.2868 52.1632 35.5343 51.7759 36.6851C51.3885 37.8244 50.8245 38.8213 50.084 39.6758C49.3434 40.5189 48.4377 41.174 47.3667 41.6411C46.2957 42.1082 45.071 42.3418 43.6924 42.3418C42.3252 42.3418 41.1004 42.1082 40.0181 41.6411C38.9357 41.174 38.0243 40.5189 37.2837 39.6758C36.5431 38.8213 35.9792 37.8244 35.5918 36.6851C35.2044 35.5343 35.0107 34.2868 35.0107 32.9424ZM39.5225 32.5835V32.9424C39.5225 33.7513 39.6022 34.509 39.7617 35.2153C39.9212 35.9217 40.1662 36.5426 40.4966 37.0781C40.827 37.6136 41.2542 38.0352 41.7783 38.3428C42.3138 38.639 42.9518 38.7871 43.6924 38.7871C44.4215 38.7871 45.0482 38.639 45.5723 38.3428C46.0964 38.0352 46.5236 37.6136 46.854 37.0781C47.1958 36.5426 47.4465 35.9217 47.606 35.2153C47.7655 34.509 47.8452 33.7513 47.8452 32.9424V32.5835C47.8452 31.786 47.7655 31.0397 47.606 30.3447C47.4465 29.6383 47.1958 29.0174 46.854 28.4819C46.5236 27.9351 46.0907 27.5078 45.5552 27.2002C45.0311 26.8812 44.3988 26.7217 43.6582 26.7217C42.929 26.7217 42.3024 26.8812 41.7783 27.2002C41.2542 27.5078 40.827 27.9351 40.4966 28.4819C40.1662 29.0174 39.9212 29.6383 39.7617 30.3447C39.6022 31.0397 39.5225 31.786 39.5225 32.5835ZM60.1499 27.2856V42H55.6382V23.5088H59.9106L60.1499 27.2856ZM65.7725 23.3892L65.7041 27.5933C65.4535 27.5477 65.1686 27.5135 64.8496 27.4907C64.542 27.4679 64.2515 27.4565 63.978 27.4565C63.283 27.4565 62.6735 27.5534 62.1494 27.7471C61.6253 27.9294 61.1867 28.1971 60.8335 28.5503C60.4917 28.9035 60.2297 29.3364 60.0474 29.8491C59.8651 30.3504 59.7625 30.9201 59.7397 31.5581L58.7656 31.4385C58.7656 30.265 58.8853 29.1769 59.1245 28.1743C59.3638 27.1717 59.7113 26.2944 60.167 25.5425C60.6227 24.7905 61.1924 24.2095 61.876 23.7993C62.571 23.3778 63.3685 23.167 64.2686 23.167C64.5192 23.167 64.7869 23.1898 65.0718 23.2354C65.368 23.2695 65.6016 23.3208 65.7725 23.3892ZM72.7451 27.3027V42H68.2334V23.5088H72.4888L72.7451 27.3027ZM72.0786 32.0879H70.6943C70.6943 30.8005 70.8481 29.6156 71.1558 28.5332C71.4748 27.4508 71.9419 26.5109 72.5571 25.7134C73.1724 24.9045 73.93 24.2778 74.8301 23.8335C75.7415 23.3892 76.7954 23.167 77.9917 23.167C78.8234 23.167 79.5868 23.2923 80.2817 23.543C80.9767 23.7822 81.5749 24.1639 82.0762 24.688C82.5889 25.2007 82.9819 25.8729 83.2554 26.7046C83.5288 27.5249 83.6655 28.5104 83.6655 29.6611V42H79.1538V30.1226C79.1538 29.2567 79.0285 28.5788 78.7778 28.0889C78.5386 27.599 78.1911 27.2572 77.7354 27.0635C77.2796 26.8584 76.7327 26.7559 76.0947 26.7559C75.3883 26.7559 74.7788 26.8983 74.2661 27.1831C73.7648 27.4565 73.349 27.8382 73.0186 28.3281C72.6995 28.818 72.4603 29.382 72.3008 30.02C72.1527 30.658 72.0786 31.3473 72.0786 32.0879ZM83.3237 31.2505L81.4609 31.5923C81.4723 30.4302 81.6318 29.3421 81.9395 28.3281C82.2471 27.3027 82.6971 26.4084 83.2896 25.645C83.8934 24.8703 84.6396 24.2664 85.5283 23.8335C86.4284 23.3892 87.4652 23.167 88.6387 23.167C89.5501 23.167 90.3704 23.298 91.0996 23.5601C91.8402 23.8107 92.4725 24.2152 92.9966 24.7734C93.5207 25.3203 93.9194 26.0324 94.1929 26.9097C94.4777 27.7869 94.6201 28.8579 94.6201 30.1226V42H90.0742V30.1055C90.0742 29.2054 89.9489 28.5161 89.6982 28.0376C89.459 27.5591 89.1115 27.2287 88.6558 27.0464C88.2 26.8527 87.6646 26.7559 87.0493 26.7559C86.4227 26.7559 85.8758 26.8755 85.4087 27.1147C84.953 27.3426 84.5656 27.6616 84.2466 28.0718C83.939 28.4819 83.7054 28.9604 83.5459 29.5073C83.3978 30.0428 83.3237 30.6239 83.3237 31.2505ZM108.856 38.0693V29.5415C108.856 28.9149 108.748 28.3737 108.531 27.918C108.315 27.4622 107.984 27.109 107.54 26.8584C107.096 26.6077 106.532 26.4824 105.848 26.4824C105.244 26.4824 104.715 26.585 104.259 26.79C103.814 26.9951 103.473 27.2856 103.233 27.6616C102.994 28.0262 102.875 28.4478 102.875 28.9263H98.3457C98.3457 28.1629 98.528 27.4395 98.8926 26.7559C99.2572 26.0609 99.7756 25.4456 100.448 24.9102C101.131 24.3633 101.946 23.936 102.892 23.6284C103.849 23.3208 104.92 23.167 106.104 23.167C107.506 23.167 108.753 23.4062 109.847 23.8848C110.952 24.3519 111.818 25.0583 112.445 26.0039C113.083 26.9495 113.402 28.1401 113.402 29.5757V37.6421C113.402 38.5649 113.459 39.3568 113.573 40.0176C113.698 40.667 113.88 41.231 114.12 41.7095V42H109.522C109.306 41.5329 109.141 40.9404 109.027 40.2227C108.913 39.4935 108.856 38.7757 108.856 38.0693ZM109.488 30.7378L109.522 33.4209H106.668C105.962 33.4209 105.341 33.495 104.806 33.6431C104.27 33.7798 103.832 33.9849 103.49 34.2583C103.148 34.5203 102.892 34.8394 102.721 35.2153C102.55 35.5799 102.464 35.9958 102.464 36.4629C102.464 36.9186 102.567 37.3288 102.772 37.6934C102.988 38.0579 103.296 38.3485 103.695 38.5649C104.105 38.77 104.583 38.8726 105.13 38.8726C105.928 38.8726 106.623 38.7131 107.215 38.394C107.808 38.0636 108.269 37.6649 108.6 37.1978C108.93 36.7306 109.107 36.2863 109.129 35.8647L110.428 37.813C110.269 38.2801 110.029 38.7757 109.71 39.2998C109.391 39.8239 108.981 40.3138 108.48 40.7695C107.979 41.2253 107.375 41.6012 106.668 41.8975C105.962 42.1937 105.142 42.3418 104.208 42.3418C103.011 42.3418 101.94 42.1025 100.995 41.624C100.049 41.1455 99.3027 40.4904 98.7559 39.6587C98.209 38.827 97.9355 37.8813 97.9355 36.8218C97.9355 35.842 98.1178 34.9761 98.4824 34.2241C98.847 33.4722 99.3882 32.8398 100.106 32.3271C100.824 31.8031 101.712 31.41 102.772 31.1479C103.843 30.8745 105.068 30.7378 106.446 30.7378H109.488ZM136.097 32.9253H129.688V29.2339H136.097C137.145 29.2339 137.994 29.063 138.644 28.7212C139.304 28.368 139.789 27.8895 140.096 27.2856C140.404 26.6704 140.558 25.9697 140.558 25.1836C140.558 24.4202 140.404 23.7082 140.096 23.0474C139.789 22.3866 139.304 21.8511 138.644 21.4409C137.994 21.0308 137.145 20.8257 136.097 20.8257H131.227V42H126.527V17.1172H136.097C138.034 17.1172 139.686 17.4647 141.053 18.1597C142.432 18.8433 143.48 19.7946 144.198 21.0137C144.927 22.2214 145.292 23.5999 145.292 25.1494C145.292 26.7559 144.927 28.1401 144.198 29.3022C143.48 30.4644 142.432 31.3587 141.053 31.9854C139.686 32.612 138.034 32.9253 136.097 32.9253ZM148.983 17.1172H158.023C159.915 17.1172 161.538 17.402 162.894 17.9717C164.25 18.5413 165.292 19.3844 166.021 20.501C166.751 21.6175 167.115 22.9904 167.115 24.6196C167.115 25.9071 166.887 27.0236 166.432 27.9692C165.976 28.9149 165.332 29.7067 164.5 30.3447C163.68 30.9827 162.712 31.484 161.595 31.8486L160.125 32.6006H152.145L152.11 28.8921H158.075C159.043 28.8921 159.846 28.7212 160.484 28.3794C161.122 28.0376 161.601 27.5648 161.92 26.9609C162.25 26.3571 162.416 25.6678 162.416 24.8931C162.416 24.0614 162.256 23.3436 161.937 22.7397C161.618 22.1245 161.134 21.6517 160.484 21.3213C159.835 20.9909 159.015 20.8257 158.023 20.8257H153.683V42H148.983V17.1172ZM163.031 42L157.271 30.8574L162.245 30.8403L168.072 41.7607V42H163.031ZM191.383 28.9263V30.208C191.383 32.0879 191.132 33.7798 190.631 35.2837C190.13 36.7762 189.417 38.0465 188.495 39.0947C187.572 40.1429 186.472 40.9461 185.196 41.5044C183.92 42.0627 182.502 42.3418 180.941 42.3418C179.403 42.3418 177.99 42.0627 176.703 41.5044C175.427 40.9461 174.321 40.1429 173.387 39.0947C172.453 38.0465 171.729 36.7762 171.217 35.2837C170.704 33.7798 170.448 32.0879 170.448 30.208V28.9263C170.448 27.035 170.704 25.3431 171.217 23.8506C171.729 22.3581 172.447 21.0877 173.37 20.0396C174.293 18.98 175.392 18.1711 176.668 17.6128C177.956 17.0545 179.369 16.7754 180.907 16.7754C182.468 16.7754 183.886 17.0545 185.162 17.6128C186.438 18.1711 187.538 18.98 188.46 20.0396C189.395 21.0877 190.112 22.3581 190.614 23.8506C191.126 25.3431 191.383 27.035 191.383 28.9263ZM186.632 30.208V28.8921C186.632 27.5363 186.507 26.3457 186.256 25.3203C186.005 24.2835 185.635 23.4119 185.145 22.7056C184.655 21.9992 184.051 21.4694 183.333 21.1162C182.616 20.7516 181.807 20.5693 180.907 20.5693C179.995 20.5693 179.186 20.7516 178.48 21.1162C177.785 21.4694 177.193 21.9992 176.703 22.7056C176.213 23.4119 175.837 24.2835 175.575 25.3203C175.324 26.3457 175.199 27.5363 175.199 28.8921V30.208C175.199 31.5524 175.324 32.743 175.575 33.7798C175.837 34.8166 176.213 35.6938 176.703 36.4116C177.204 37.118 177.808 37.6535 178.514 38.0181C179.221 38.3826 180.029 38.5649 180.941 38.5649C181.852 38.5649 182.661 38.3826 183.368 38.0181C184.074 37.6535 184.667 37.118 185.145 36.4116C185.635 35.6938 186.005 34.8166 186.256 33.7798C186.507 32.743 186.632 31.5524 186.632 30.208Z"/>
</mask>
<path d="M31.3706 17.1172V42H26.6538L16.0752 24.7393V42H11.3755V17.1172H16.0752L26.688 34.395V17.1172H31.3706ZM35.0107 32.9424V32.5835C35.0107 31.2277 35.2044 29.9801 35.5918 28.8408C35.9792 27.6901 36.5431 26.6932 37.2837 25.8501C38.0243 25.007 38.93 24.3519 40.001 23.8848C41.0719 23.4062 42.291 23.167 43.6582 23.167C45.0482 23.167 46.2786 23.4062 47.3496 23.8848C48.432 24.3519 49.3434 25.007 50.084 25.8501C50.8245 26.6932 51.3885 27.6901 51.7759 28.8408C52.1632 29.9801 52.3569 31.2277 52.3569 32.5835V32.9424C52.3569 34.2868 52.1632 35.5343 51.7759 36.6851C51.3885 37.8244 50.8245 38.8213 50.084 39.6758C49.3434 40.5189 48.4377 41.174 47.3667 41.6411C46.2957 42.1082 45.071 42.3418 43.6924 42.3418C42.3252 42.3418 41.1004 42.1082 40.0181 41.6411C38.9357 41.174 38.0243 40.5189 37.2837 39.6758C36.5431 38.8213 35.9792 37.8244 35.5918 36.6851C35.2044 35.5343 35.0107 34.2868 35.0107 32.9424ZM39.5225 32.5835V32.9424C39.5225 33.7513 39.6022 34.509 39.7617 35.2153C39.9212 35.9217 40.1662 36.5426 40.4966 37.0781C40.827 37.6136 41.2542 38.0352 41.7783 38.3428C42.3138 38.639 42.9518 38.7871 43.6924 38.7871C44.4215 38.7871 45.0482 38.639 45.5723 38.3428C46.0964 38.0352 46.5236 37.6136 46.854 37.0781C47.1958 36.5426 47.4465 35.9217 47.606 35.2153C47.7655 34.509 47.8452 33.7513 47.8452 32.9424V32.5835C47.8452 31.786 47.7655 31.0397 47.606 30.3447C47.4465 29.6383 47.1958 29.0174 46.854 28.4819C46.5236 27.9351 46.0907 27.5078 45.5552 27.2002C45.0311 26.8812 44.3988 26.7217 43.6582 26.7217C42.929 26.7217 42.3024 26.8812 41.7783 27.2002C41.2542 27.5078 40.827 27.9351 40.4966 28.4819C40.1662 29.0174 39.9212 29.6383 39.7617 30.3447C39.6022 31.0397 39.5225 31.786 39.5225 32.5835ZM60.1499 27.2856V42H55.6382V23.5088H59.9106L60.1499 27.2856ZM65.7725 23.3892L65.7041 27.5933C65.4535 27.5477 65.1686 27.5135 64.8496 27.4907C64.542 27.4679 64.2515 27.4565 63.978 27.4565C63.283 27.4565 62.6735 27.5534 62.1494 27.7471C61.6253 27.9294 61.1867 28.1971 60.8335 28.5503C60.4917 28.9035 60.2297 29.3364 60.0474 29.8491C59.8651 30.3504 59.7625 30.9201 59.7397 31.5581L58.7656 31.4385C58.7656 30.265 58.8853 29.1769 59.1245 28.1743C59.3638 27.1717 59.7113 26.2944 60.167 25.5425C60.6227 24.7905 61.1924 24.2095 61.876 23.7993C62.571 23.3778 63.3685 23.167 64.2686 23.167C64.5192 23.167 64.7869 23.1898 65.0718 23.2354C65.368 23.2695 65.6016 23.3208 65.7725 23.3892ZM72.7451 27.3027V42H68.2334V23.5088H72.4888L72.7451 27.3027ZM72.0786 32.0879H70.6943C70.6943 30.8005 70.8481 29.6156 71.1558 28.5332C71.4748 27.4508 71.9419 26.5109 72.5571 25.7134C73.1724 24.9045 73.93 24.2778 74.8301 23.8335C75.7415 23.3892 76.7954 23.167 77.9917 23.167C78.8234 23.167 79.5868 23.2923 80.2817 23.543C80.9767 23.7822 81.5749 24.1639 82.0762 24.688C82.5889 25.2007 82.9819 25.8729 83.2554 26.7046C83.5288 27.5249 83.6655 28.5104 83.6655 29.6611V42H79.1538V30.1226C79.1538 29.2567 79.0285 28.5788 78.7778 28.0889C78.5386 27.599 78.1911 27.2572 77.7354 27.0635C77.2796 26.8584 76.7327 26.7559 76.0947 26.7559C75.3883 26.7559 74.7788 26.8983 74.2661 27.1831C73.7648 27.4565 73.349 27.8382 73.0186 28.3281C72.6995 28.818 72.4603 29.382 72.3008 30.02C72.1527 30.658 72.0786 31.3473 72.0786 32.0879ZM83.3237 31.2505L81.4609 31.5923C81.4723 30.4302 81.6318 29.3421 81.9395 28.3281C82.2471 27.3027 82.6971 26.4084 83.2896 25.645C83.8934 24.8703 84.6396 24.2664 85.5283 23.8335C86.4284 23.3892 87.4652 23.167 88.6387 23.167C89.5501 23.167 90.3704 23.298 91.0996 23.5601C91.8402 23.8107 92.4725 24.2152 92.9966 24.7734C93.5207 25.3203 93.9194 26.0324 94.1929 26.9097C94.4777 27.7869 94.6201 28.8579 94.6201 30.1226V42H90.0742V30.1055C90.0742 29.2054 89.9489 28.5161 89.6982 28.0376C89.459 27.5591 89.1115 27.2287 88.6558 27.0464C88.2 26.8527 87.6646 26.7559 87.0493 26.7559C86.4227 26.7559 85.8758 26.8755 85.4087 27.1147C84.953 27.3426 84.5656 27.6616 84.2466 28.0718C83.939 28.4819 83.7054 28.9604 83.5459 29.5073C83.3978 30.0428 83.3237 30.6239 83.3237 31.2505ZM108.856 38.0693V29.5415C108.856 28.9149 108.748 28.3737 108.531 27.918C108.315 27.4622 107.984 27.109 107.54 26.8584C107.096 26.6077 106.532 26.4824 105.848 26.4824C105.244 26.4824 104.715 26.585 104.259 26.79C103.814 26.9951 103.473 27.2856 103.233 27.6616C102.994 28.0262 102.875 28.4478 102.875 28.9263H98.3457C98.3457 28.1629 98.528 27.4395 98.8926 26.7559C99.2572 26.0609 99.7756 25.4456 100.448 24.9102C101.131 24.3633 101.946 23.936 102.892 23.6284C103.849 23.3208 104.92 23.167 106.104 23.167C107.506 23.167 108.753 23.4062 109.847 23.8848C110.952 24.3519 111.818 25.0583 112.445 26.0039C113.083 26.9495 113.402 28.1401 113.402 29.5757V37.6421C113.402 38.5649 113.459 39.3568 113.573 40.0176C113.698 40.667 113.88 41.231 114.12 41.7095V42H109.522C109.306 41.5329 109.141 40.9404 109.027 40.2227C108.913 39.4935 108.856 38.7757 108.856 38.0693ZM109.488 30.7378L109.522 33.4209H106.668C105.962 33.4209 105.341 33.495 104.806 33.6431C104.27 33.7798 103.832 33.9849 103.49 34.2583C103.148 34.5203 102.892 34.8394 102.721 35.2153C102.55 35.5799 102.464 35.9958 102.464 36.4629C102.464 36.9186 102.567 37.3288 102.772 37.6934C102.988 38.0579 103.296 38.3485 103.695 38.5649C104.105 38.77 104.583 38.8726 105.13 38.8726C105.928 38.8726 106.623 38.7131 107.215 38.394C107.808 38.0636 108.269 37.6649 108.6 37.1978C108.93 36.7306 109.107 36.2863 109.129 35.8647L110.428 37.813C110.269 38.2801 110.029 38.7757 109.71 39.2998C109.391 39.8239 108.981 40.3138 108.48 40.7695C107.979 41.2253 107.375 41.6012 106.668 41.8975C105.962 42.1937 105.142 42.3418 104.208 42.3418C103.011 42.3418 101.94 42.1025 100.995 41.624C100.049 41.1455 99.3027 40.4904 98.7559 39.6587C98.209 38.827 97.9355 37.8813 97.9355 36.8218C97.9355 35.842 98.1178 34.9761 98.4824 34.2241C98.847 33.4722 99.3882 32.8398 100.106 32.3271C100.824 31.8031 101.712 31.41 102.772 31.1479C103.843 30.8745 105.068 30.7378 106.446 30.7378H109.488ZM136.097 32.9253H129.688V29.2339H136.097C137.145 29.2339 137.994 29.063 138.644 28.7212C139.304 28.368 139.789 27.8895 140.096 27.2856C140.404 26.6704 140.558 25.9697 140.558 25.1836C140.558 24.4202 140.404 23.7082 140.096 23.0474C139.789 22.3866 139.304 21.8511 138.644 21.4409C137.994 21.0308 137.145 20.8257 136.097 20.8257H131.227V42H126.527V17.1172H136.097C138.034 17.1172 139.686 17.4647 141.053 18.1597C142.432 18.8433 143.48 19.7946 144.198 21.0137C144.927 22.2214 145.292 23.5999 145.292 25.1494C145.292 26.7559 144.927 28.1401 144.198 29.3022C143.48 30.4644 142.432 31.3587 141.053 31.9854C139.686 32.612 138.034 32.9253 136.097 32.9253ZM148.983 17.1172H158.023C159.915 17.1172 161.538 17.402 162.894 17.9717C164.25 18.5413 165.292 19.3844 166.021 20.501C166.751 21.6175 167.115 22.9904 167.115 24.6196C167.115 25.9071 166.887 27.0236 166.432 27.9692C165.976 28.9149 165.332 29.7067 164.5 30.3447C163.68 30.9827 162.712 31.484 161.595 31.8486L160.125 32.6006H152.145L152.11 28.8921H158.075C159.043 28.8921 159.846 28.7212 160.484 28.3794C161.122 28.0376 161.601 27.5648 161.92 26.9609C162.25 26.3571 162.416 25.6678 162.416 24.8931C162.416 24.0614 162.256 23.3436 161.937 22.7397C161.618 22.1245 161.134 21.6517 160.484 21.3213C159.835 20.9909 159.015 20.8257 158.023 20.8257H153.683V42H148.983V17.1172ZM163.031 42L157.271 30.8574L162.245 30.8403L168.072 41.7607V42H163.031ZM191.383 28.9263V30.208C191.383 32.0879 191.132 33.7798 190.631 35.2837C190.13 36.7762 189.417 38.0465 188.495 39.0947C187.572 40.1429 186.472 40.9461 185.196 41.5044C183.92 42.0627 182.502 42.3418 180.941 42.3418C179.403 42.3418 177.99 42.0627 176.703 41.5044C175.427 40.9461 174.321 40.1429 173.387 39.0947C172.453 38.0465 171.729 36.7762 171.217 35.2837C170.704 33.7798 170.448 32.0879 170.448 30.208V28.9263C170.448 27.035 170.704 25.3431 171.217 23.8506C171.729 22.3581 172.447 21.0877 173.37 20.0396C174.293 18.98 175.392 18.1711 176.668 17.6128C177.956 17.0545 179.369 16.7754 180.907 16.7754C182.468 16.7754 183.886 17.0545 185.162 17.6128C186.438 18.1711 187.538 18.98 188.46 20.0396C189.395 21.0877 190.112 22.3581 190.614 23.8506C191.126 25.3431 191.383 27.035 191.383 28.9263ZM186.632 30.208V28.8921C186.632 27.5363 186.507 26.3457 186.256 25.3203C186.005 24.2835 185.635 23.4119 185.145 22.7056C184.655 21.9992 184.051 21.4694 183.333 21.1162C182.616 20.7516 181.807 20.5693 180.907 20.5693C179.995 20.5693 179.186 20.7516 178.48 21.1162C177.785 21.4694 177.193 21.9992 176.703 22.7056C176.213 23.4119 175.837 24.2835 175.575 25.3203C175.324 26.3457 175.199 27.5363 175.199 28.8921V30.208C175.199 31.5524 175.324 32.743 175.575 33.7798C175.837 34.8166 176.213 35.6938 176.703 36.4116C177.204 37.118 177.808 37.6535 178.514 38.0181C179.221 38.3826 180.029 38.5649 180.941 38.5649C181.852 38.5649 182.661 38.3826 183.368 38.0181C184.074 37.6535 184.667 37.118 185.145 36.4116C185.635 35.6938 186.005 34.8166 186.256 33.7798C186.507 32.743 186.632 31.5524 186.632 30.208Z" fill="white"/>
<path d="M31.3706 17.1172H32.3706V16.1172H31.3706V17.1172ZM31.3706 42V43H32.3706V42H31.3706ZM26.6538 42L25.8012 42.5225L26.0938 43H26.6538V42ZM16.0752 24.7393L16.9278 24.2167L15.0752 21.1939V24.7393H16.0752ZM16.0752 42V43H17.0752V42H16.0752ZM11.3755 42H10.3755V43H11.3755V42ZM11.3755 17.1172V16.1172H10.3755V17.1172H11.3755ZM16.0752 17.1172L16.9273 16.5938L16.6345 16.1172H16.0752V17.1172ZM26.688 34.395L25.8359 34.9184L27.688 37.9337V34.395H26.688ZM26.688 17.1172V16.1172H25.688V17.1172H26.688ZM30.3706 17.1172V42H32.3706V17.1172H30.3706ZM31.3706 41H26.6538V43H31.3706V41ZM27.5064 41.4775L16.9278 24.2167L15.2226 25.2618L25.8012 42.5225L27.5064 41.4775ZM15.0752 24.7393V42H17.0752V24.7393H15.0752ZM16.0752 41H11.3755V43H16.0752V41ZM12.3755 42V17.1172H10.3755V42H12.3755ZM11.3755 18.1172H16.0752V16.1172H11.3755V18.1172ZM15.2231 17.6406L25.8359 34.9184L27.5401 33.8716L16.9273 16.5938L15.2231 17.6406ZM27.688 34.395V17.1172H25.688V34.395H27.688ZM26.688 18.1172H31.3706V16.1172H26.688V18.1172ZM35.5918 28.8408L36.5386 29.1627L36.5395 29.1599L35.5918 28.8408ZM37.2837 25.8501L38.035 26.51L37.2837 25.8501ZM40.001 23.8848L40.4008 24.8014L40.4089 24.7978L40.001 23.8848ZM47.3496 23.8848L46.9416 24.7978L46.9534 24.8029L47.3496 23.8848ZM50.084 25.8501L49.3327 26.51L50.084 25.8501ZM51.7759 28.8408L50.8281 29.1599L50.8291 29.1627L51.7759 28.8408ZM51.7759 36.6851L52.7227 37.007L52.7236 37.0041L51.7759 36.6851ZM50.084 39.6758L50.8353 40.3357L50.8397 40.3307L50.084 39.6758ZM37.2837 39.6758L36.528 40.3307L36.5324 40.3357L37.2837 39.6758ZM35.5918 36.6851L34.6441 37.0041L34.645 37.007L35.5918 36.6851ZM41.7783 38.3428L41.2721 39.2052L41.2831 39.2116L41.2943 39.2178L41.7783 38.3428ZM45.5723 38.3428L46.0643 39.2133L46.0714 39.2093L46.0785 39.2052L45.5723 38.3428ZM46.854 37.0781L46.0111 36.5401L46.007 36.5465L46.003 36.553L46.854 37.0781ZM47.606 30.3447L46.6305 30.565L46.6313 30.5684L47.606 30.3447ZM46.854 28.4819L45.9981 28.9991L46.0045 29.0096L46.0111 29.02L46.854 28.4819ZM45.5552 27.2002L45.0352 28.0544L45.0461 28.061L45.0571 28.0673L45.5552 27.2002ZM41.7783 27.2002L42.2845 28.0626L42.2914 28.0586L42.2983 28.0544L41.7783 27.2002ZM40.4966 28.4819L41.3477 29.0071L41.3525 28.9991L40.4966 28.4819ZM39.7617 30.3447L40.7364 30.5684L40.7372 30.565L39.7617 30.3447ZM36.0107 32.9424V32.5835H34.0107V32.9424H36.0107ZM36.0107 32.5835C36.0107 31.3235 36.1906 30.1862 36.5386 29.1627L34.645 28.5189C34.2183 29.7741 34.0107 31.1319 34.0107 32.5835H36.0107ZM36.5395 29.1599C36.8881 28.1243 37.3888 27.2457 38.035 26.51L36.5324 25.1902C35.6975 26.1407 35.0702 27.2559 34.6441 28.5218L36.5395 29.1599ZM38.035 26.51C38.6746 25.7818 39.4587 25.2123 40.4008 24.8014L39.6012 22.9682C38.4013 23.4915 37.3739 24.2322 36.5324 25.1902L38.035 26.51ZM40.4089 24.7978C41.332 24.3853 42.4085 24.167 43.6582 24.167V22.167C42.1735 22.167 40.8119 22.4272 39.593 22.9718L40.4089 24.7978ZM43.6582 24.167C44.9332 24.167 46.0206 24.3862 46.9417 24.7978L47.7575 22.9718C46.5367 22.4263 45.1631 22.167 43.6582 22.167V24.167ZM46.9534 24.8029C47.9067 25.2144 48.6948 25.7839 49.3327 26.51L50.8353 25.1902C49.992 24.2301 48.9572 23.4894 47.7459 22.9666L46.9534 24.8029ZM49.3327 26.51C49.9789 27.2457 50.4795 28.1243 50.8281 29.1599L52.7236 28.5218C52.2975 27.2559 51.6702 26.1407 50.8353 25.1902L49.3327 26.51ZM50.8291 29.1627C51.1771 30.1862 51.3569 31.3235 51.3569 32.5835H53.3569C53.3569 31.1319 53.1494 29.7741 52.7227 28.5189L50.8291 29.1627ZM51.3569 32.5835V32.9424H53.3569V32.5835H51.3569ZM51.3569 32.9424C51.3569 34.1899 51.1774 35.3285 50.8281 36.366L52.7236 37.0041C53.1491 35.7402 53.3569 34.3837 53.3569 32.9424H51.3569ZM50.8291 36.3632C50.4806 37.3881 49.9789 38.2701 49.3283 39.0209L50.8397 40.3307C51.6702 39.3724 52.2964 38.2606 52.7227 37.007L50.8291 36.3632ZM49.3327 39.0158C48.693 39.744 47.909 40.3136 46.9669 40.7245L47.7665 42.5577C48.9664 42.0344 49.9938 41.2937 50.8353 40.3357L49.3327 39.0158ZM46.9669 40.7245C46.0426 41.1276 44.9578 41.3418 43.6924 41.3418V43.3418C45.1841 43.3418 46.5488 43.0888 47.7665 42.5577L46.9669 40.7245ZM43.6924 41.3418C42.4399 41.3418 41.3532 41.1282 40.4143 40.723L39.6218 42.5593C40.8477 43.0883 42.2105 43.3418 43.6924 43.3418V41.3418ZM40.4143 40.723C39.4609 40.3115 38.6729 39.742 38.035 39.0158L36.5324 40.3357C37.3756 41.2957 38.4105 42.0365 39.6218 42.5593L40.4143 40.723ZM38.0394 39.0209C37.3888 38.2701 36.8871 37.3881 36.5386 36.3632L34.645 37.007C35.0713 38.2606 35.6975 39.3724 36.528 40.3307L38.0394 39.0209ZM36.5395 36.366C36.1903 35.3285 36.0107 34.1899 36.0107 32.9424H34.0107C34.0107 34.3837 34.2186 35.7402 34.6441 37.0041L36.5395 36.366ZM38.5225 32.5835V32.9424H40.5225V32.5835H38.5225ZM38.5225 32.9424C38.5225 33.8169 38.6087 34.6491 38.7863 35.4356L40.7372 34.9951C40.5957 34.3688 40.5225 33.6857 40.5225 32.9424H38.5225ZM38.7863 35.4356C38.9665 36.2338 39.2491 36.9607 39.6455 37.6032L41.3476 36.553C41.0833 36.1246 40.8759 35.6096 40.7372 34.9951L38.7863 35.4356ZM39.6455 37.6032C40.0585 38.2725 40.6022 38.812 41.2721 39.2052L42.2845 37.4804C41.9063 37.2583 41.5955 36.9547 41.3476 36.553L39.6455 37.6032ZM41.2943 39.2178C42.0061 39.6116 42.8179 39.7871 43.6924 39.7871V37.7871C43.0858 37.7871 42.6215 37.6664 42.2624 37.4677L41.2943 39.2178ZM43.6924 39.7871C44.5577 39.7871 45.3614 39.6106 46.0643 39.2133L45.0802 37.4722C44.7349 37.6674 44.2854 37.7871 43.6924 37.7871V39.7871ZM46.0785 39.2052C46.7484 38.812 47.2921 38.2725 47.705 37.6032L46.003 36.553C45.7551 36.9547 45.4443 37.2583 45.0661 37.4804L46.0785 39.2052ZM47.6969 37.6162C48.109 36.9706 48.3999 36.2392 48.5814 35.4356L46.6305 34.9951C46.493 35.6042 46.2826 36.1147 46.0111 36.5401L47.6969 37.6162ZM48.5814 35.4356C48.759 34.6491 48.8452 33.8169 48.8452 32.9424H46.8452C46.8452 33.6857 46.7719 34.3688 46.6305 34.9951L48.5814 35.4356ZM48.8452 32.9424V32.5835H46.8452V32.9424H48.8452ZM48.8452 32.5835C48.8452 31.7194 48.7588 30.8974 48.5806 30.121L46.6313 30.5684C46.7721 31.182 46.8452 31.8525 46.8452 32.5835H48.8452ZM48.5814 30.1245C48.3999 29.3209 48.109 28.5895 47.6969 27.9439L46.0111 29.02C46.2826 29.4454 46.493 29.9558 46.6305 30.565L48.5814 30.1245ZM47.7099 27.9648C47.295 27.2781 46.741 26.7281 46.0533 26.3331L45.0571 28.0673C45.4403 28.2875 45.7522 28.5921 45.9981 28.9991L47.7099 27.9648ZM46.0751 26.346C45.3647 25.9136 44.5441 25.7217 43.6582 25.7217V27.7217C44.2535 27.7217 44.6974 27.8488 45.0352 28.0544L46.0751 26.346ZM43.6582 25.7217C42.7805 25.7217 41.9665 25.915 41.2584 26.346L42.2983 28.0544C42.6384 27.8474 43.0776 27.7217 43.6582 27.7217V25.7217ZM41.2721 26.3378C40.5971 26.734 40.0525 27.2831 39.6407 27.9648L41.3525 28.9991C41.6014 28.587 41.9114 28.2816 42.2845 28.0626L41.2721 26.3378ZM39.6455 27.9568C39.2491 28.5993 38.9665 29.3263 38.7863 30.1245L40.7372 30.565C40.8759 29.9504 41.0833 29.4355 41.3476 29.007L39.6455 27.9568ZM38.7871 30.121C38.6089 30.8974 38.5225 31.7194 38.5225 32.5835H40.5225C40.5225 31.8525 40.5956 31.182 40.7364 30.5684L38.7871 30.121ZM60.1499 27.2856H61.1499V27.254L61.1479 27.2224L60.1499 27.2856ZM60.1499 42V43H61.1499V42H60.1499ZM55.6382 42H54.6382V43H55.6382V42ZM55.6382 23.5088V22.5088H54.6382V23.5088H55.6382ZM59.9106 23.5088L60.9086 23.4456L60.8493 22.5088H59.9106V23.5088ZM65.7725 23.3892L66.7723 23.4054L66.7835 22.7166L66.1439 22.4607L65.7725 23.3892ZM65.7041 27.5933L65.5252 28.5771L66.6848 28.788L66.704 27.6095L65.7041 27.5933ZM64.8496 27.4907L64.7757 28.488L64.7784 28.4882L64.8496 27.4907ZM62.1494 27.7471L62.4779 28.6916L62.487 28.6884L62.4961 28.6851L62.1494 27.7471ZM60.8335 28.5503L60.1264 27.8432L60.1206 27.849L60.1149 27.8549L60.8335 28.5503ZM60.0474 29.8491L60.9872 30.1909L60.9896 30.1841L60.0474 29.8491ZM59.7397 31.5581L59.6179 32.5506L60.7002 32.6836L60.7391 31.5938L59.7397 31.5581ZM58.7656 31.4385H57.7656V32.3232L58.6437 32.431L58.7656 31.4385ZM61.876 23.7993L62.3905 24.6568L62.3946 24.6543L61.876 23.7993ZM65.0718 23.2354L64.9138 24.2228L64.9354 24.2263L64.9572 24.2288L65.0718 23.2354ZM59.1499 27.2856V42H61.1499V27.2856H59.1499ZM60.1499 41H55.6382V43H60.1499V41ZM56.6382 42V23.5088H54.6382V42H56.6382ZM55.6382 24.5088H59.9106V22.5088H55.6382V24.5088ZM58.9126 23.572L59.1519 27.3489L61.1479 27.2224L60.9086 23.4456L58.9126 23.572ZM64.7726 23.3729L64.7042 27.577L66.704 27.6095L66.7723 23.4054L64.7726 23.3729ZM65.883 26.6094C65.5891 26.556 65.2673 26.518 64.9209 26.4933L64.7784 28.4882C65.0699 28.509 65.3178 28.5394 65.5252 28.5771L65.883 26.6094ZM64.9235 26.4935C64.5943 26.4691 64.279 26.4565 63.978 26.4565V28.4565C64.2239 28.4565 64.4897 28.4668 64.7757 28.488L64.9235 26.4935ZM63.978 26.4565C63.1925 26.4565 62.4612 26.5658 61.8028 26.8091L62.4961 28.6851C62.8858 28.541 63.3736 28.4565 63.978 28.4565V26.4565ZM61.8209 26.8026C61.1703 27.0289 60.5976 27.372 60.1264 27.8432L61.5406 29.2574C61.7758 29.0222 62.0804 28.8299 62.4779 28.6916L61.8209 26.8026ZM60.1149 27.8549C59.6634 28.3214 59.3302 28.8812 59.1051 29.5141L60.9896 30.1841C61.1291 29.7916 61.32 29.4856 61.5521 29.2457L60.1149 27.8549ZM59.1076 29.5074C58.8833 30.1241 58.7662 30.7998 58.7404 31.5224L60.7391 31.5938C60.7589 31.0403 60.8468 30.5768 60.9872 30.1909L59.1076 29.5074ZM59.8616 30.5656L58.8875 30.4459L58.6437 32.431L59.6179 32.5506L59.8616 30.5656ZM59.7656 31.4385C59.7656 30.3326 59.8784 29.3234 60.0972 28.4064L58.1518 27.9422C57.8921 29.0305 57.7656 30.1974 57.7656 31.4385H59.7656ZM60.0972 28.4064C60.3164 27.4878 60.6286 26.7103 61.0222 26.0608L59.3118 25.0242C58.794 25.8786 58.4111 26.8556 58.1518 27.9422L60.0972 28.4064ZM61.0222 26.0608C61.4025 25.4333 61.8603 24.9749 62.3905 24.6568L61.3615 22.9418C60.5245 23.444 59.843 24.1477 59.3118 25.0242L61.0222 26.0608ZM62.3946 24.6543C62.9168 24.3376 63.5312 24.167 64.2686 24.167V22.167C63.2058 22.167 62.2251 22.418 61.3574 22.9443L62.3946 24.6543ZM64.2686 24.167C64.4591 24.167 64.6736 24.1844 64.9138 24.2228L65.2298 22.2479C64.9003 22.1952 64.5793 22.167 64.2686 22.167V24.167ZM64.9572 24.2288C65.2125 24.2582 65.3473 24.2961 65.4011 24.3176L66.1439 22.4607C65.8558 22.3455 65.5235 22.2808 65.1864 22.2419L64.9572 24.2288ZM72.7451 27.3027H73.7451V27.269L73.7428 27.2353L72.7451 27.3027ZM72.7451 42V43H73.7451V42H72.7451ZM68.2334 42H67.2334V43H68.2334V42ZM68.2334 23.5088V22.5088H67.2334V23.5088H68.2334ZM72.4888 23.5088L73.4865 23.4414L73.4235 22.5088H72.4888V23.5088ZM72.0786 32.0879V33.0879H73.0786V32.0879H72.0786ZM70.6943 32.0879H69.6943V33.0879H70.6943V32.0879ZM71.1558 28.5332L70.1965 28.2505L70.1939 28.2598L71.1558 28.5332ZM72.5571 25.7134L73.3489 26.3242L73.3531 26.3187L72.5571 25.7134ZM74.8301 23.8335L74.3919 22.9346L74.3874 22.9368L74.8301 23.8335ZM80.2817 23.543L79.9425 24.4837L79.9493 24.4861L79.9562 24.4885L80.2817 23.543ZM82.0762 24.688L81.3535 25.3792L81.3612 25.3872L81.3691 25.3951L82.0762 24.688ZM83.2554 26.7046L82.3054 27.0169L82.3067 27.0208L83.2554 26.7046ZM83.6655 42V43H84.6655V42H83.6655ZM79.1538 42H78.1538V43H79.1538V42ZM78.7778 28.0889L77.8793 28.5277L77.8833 28.5361L77.8876 28.5443L78.7778 28.0889ZM77.7354 27.0635L77.325 27.9754L77.3346 27.9797L77.3442 27.9838L77.7354 27.0635ZM74.2661 27.1831L74.745 28.061L74.7518 28.0573L74.2661 27.1831ZM73.0186 28.3281L72.1895 27.769L72.185 27.7757L72.1806 27.7825L73.0186 28.3281ZM72.3008 30.02L71.3306 29.7775L71.3286 29.7857L71.3267 29.7939L72.3008 30.02ZM83.3237 31.2505L83.5042 32.2341L84.3237 32.0837V31.2505H83.3237ZM81.4609 31.5923L80.461 31.5825L80.4491 32.7946L81.6414 32.5759L81.4609 31.5923ZM81.9395 28.3281L82.8964 28.6184L82.8973 28.6155L81.9395 28.3281ZM83.2896 25.645L82.5008 25.0303L82.4996 25.0319L83.2896 25.645ZM85.5283 23.8335L85.9663 24.7325L85.971 24.7302L85.5283 23.8335ZM91.0996 23.5601L90.7614 24.5011L90.7702 24.5043L90.779 24.5073L91.0996 23.5601ZM92.9966 24.7734L92.2675 25.4579L92.2746 25.4653L92.9966 24.7734ZM94.1929 26.9097L93.2381 27.2073L93.2417 27.2185L94.1929 26.9097ZM94.6201 42V43H95.6201V42H94.6201ZM90.0742 42H89.0742V43H90.0742V42ZM89.6982 28.0376L88.8038 28.4848L88.808 28.4932L88.8124 28.5016L89.6982 28.0376ZM88.6558 27.0464L88.2646 27.9667L88.2745 27.9709L88.2844 27.9749L88.6558 27.0464ZM85.4087 27.1147L85.8559 28.0092L85.8646 28.0048L85.4087 27.1147ZM84.2466 28.0718L83.4572 27.4578L83.4518 27.4648L83.4466 27.4718L84.2466 28.0718ZM83.5459 29.5073L82.5858 29.2273L82.5821 29.2407L83.5459 29.5073ZM71.7451 27.3027V42H73.7451V27.3027H71.7451ZM72.7451 41H68.2334V43H72.7451V41ZM69.2334 42V23.5088H67.2334V42H69.2334ZM68.2334 24.5088H72.4888V22.5088H68.2334V24.5088ZM71.491 23.5762L71.7474 27.3701L73.7428 27.2353L73.4865 23.4414L71.491 23.5762ZM72.0786 31.0879H70.6943V33.0879H72.0786V31.0879ZM71.6943 32.0879C71.6943 30.8799 71.8387 29.7883 72.1177 28.8066L70.1939 28.2598C69.8576 29.4428 69.6943 30.721 69.6943 32.0879H71.6943ZM72.115 28.8159C72.4032 27.8381 72.8179 27.0126 73.3489 26.3242L71.7653 25.1026C71.0659 26.0092 70.5464 27.0636 70.1966 28.2505L72.115 28.8159ZM73.3531 26.3187C73.8759 25.6314 74.5132 25.1052 75.2727 24.7302L74.3874 22.9368C73.3469 23.4505 72.4688 24.1776 71.7612 25.108L73.3531 26.3187ZM75.2683 24.7324C76.0208 24.3655 76.9202 24.167 77.9917 24.167V22.167C76.6707 22.167 75.4623 22.4128 74.3919 22.9346L75.2683 24.7324ZM77.9917 24.167C78.7221 24.167 79.3691 24.2769 79.9425 24.4837L80.621 22.6023C79.8044 22.3078 78.9247 22.167 77.9917 22.167V24.167ZM79.9562 24.4885C80.5026 24.6766 80.964 24.9719 81.3535 25.3792L82.7988 23.9968C82.1858 23.3559 81.4509 22.8879 80.6073 22.5974L79.9562 24.4885ZM81.3691 25.3951C81.7503 25.7764 82.0708 26.3035 82.3054 27.0169L84.2053 26.3923C83.893 25.4423 83.4274 24.625 82.7833 23.9809L81.3691 25.3951ZM82.3067 27.0208C82.537 27.7118 82.6655 28.5846 82.6655 29.6611H84.6655C84.6655 28.4362 84.5206 27.3381 84.2041 26.3884L82.3067 27.0208ZM82.6655 29.6611V42H84.6655V29.6611H82.6655ZM83.6655 41H79.1538V43H83.6655V41ZM80.1538 42V30.1226H78.1538V42H80.1538ZM80.1538 30.1226C80.1538 29.18 80.0206 28.3225 79.6681 27.6334L77.8876 28.5443C78.0363 28.8351 78.1538 29.3333 78.1538 30.1226H80.1538ZM79.6764 27.65C79.343 26.9673 78.8268 26.4408 78.1265 26.1431L77.3442 27.9838C77.5554 28.0736 77.7342 28.2306 77.8793 28.5277L79.6764 27.65ZM78.1457 26.1516C77.5305 25.8747 76.8365 25.7559 76.0947 25.7559V27.7559C76.629 27.7559 77.0287 27.8421 77.325 27.9754L78.1457 26.1516ZM76.0947 25.7559C75.253 25.7559 74.4693 25.9263 73.7805 26.3089L74.7518 28.0573C75.0883 27.8703 75.5237 27.7559 76.0947 27.7559V25.7559ZM73.7873 26.3052C73.1404 26.658 72.6062 27.1511 72.1895 27.769L73.8476 28.8873C74.0917 28.5253 74.3892 28.255 74.745 28.061L73.7873 26.3052ZM72.1806 27.7825C71.7939 28.3762 71.5137 29.0451 71.3306 29.7775L73.2709 30.2626C73.4068 29.7189 73.6052 29.2599 73.8566 28.8738L72.1806 27.7825ZM71.3267 29.7939C71.1593 30.515 71.0786 31.2809 71.0786 32.0879H73.0786C73.0786 31.4137 73.146 30.8011 73.2749 30.2461L71.3267 29.7939ZM83.1433 30.2669L81.2805 30.6087L81.6414 32.5759L83.5042 32.2341L83.1433 30.2669ZM82.4609 31.6021C82.4714 30.5259 82.6189 29.5331 82.8964 28.6184L80.9825 28.0378C80.6448 29.1511 80.4732 30.3344 80.461 31.5825L82.4609 31.6021ZM82.8973 28.6155C83.1733 27.6954 83.5704 26.9142 84.0795 26.2581L82.4996 25.0319C81.8239 25.9025 81.3208 26.9101 80.9816 28.0408L82.8973 28.6155ZM84.0783 26.2598C84.5878 25.6061 85.2138 25.0991 85.9663 24.7325L85.0903 22.9345C84.0655 23.4338 83.199 24.1345 82.5008 25.0303L84.0783 26.2598ZM85.971 24.7302C86.7119 24.3644 87.5928 24.167 88.6387 24.167V22.167C87.3375 22.167 86.1449 22.4139 85.0857 22.9368L85.971 24.7302ZM88.6387 24.167C89.4547 24.167 90.158 24.2843 90.7614 24.5011L91.4378 22.619C90.5829 22.3118 89.6455 22.167 88.6387 22.167V24.167ZM90.779 24.5073C91.3673 24.7064 91.8584 25.022 92.2675 25.4579L93.7257 24.089C93.0866 23.4083 92.313 22.915 91.4202 22.6128L90.779 24.5073ZM92.2746 25.4653C92.6712 25.8792 93.0011 26.4466 93.2382 27.2072L95.1476 26.6121C94.8378 25.6182 94.3701 24.7614 93.7186 24.0815L92.2746 25.4653ZM93.2417 27.2185C93.4847 27.9667 93.6201 28.9267 93.6201 30.1226H95.6201C95.6201 28.7891 95.4707 27.6072 95.144 26.6009L93.2417 27.2185ZM93.6201 30.1226V42H95.6201V30.1226H93.6201ZM94.6201 41H90.0742V43H94.6201V41ZM91.0742 42V30.1055H89.0742V42H91.0742ZM91.0742 30.1055C91.0742 29.1386 90.9439 28.2606 90.5841 27.5736L88.8124 28.5016C88.9538 28.7716 89.0742 29.2722 89.0742 30.1055H91.0742ZM90.5927 27.5904C90.2545 26.9141 89.7315 26.3996 89.0272 26.1179L88.2844 27.9749C88.4915 28.0577 88.6634 28.204 88.8038 28.4848L90.5927 27.5904ZM89.0469 26.1261C88.4414 25.8687 87.7674 25.7559 87.0493 25.7559V27.7559C87.5617 27.7559 87.9587 27.8367 88.2646 27.9667L89.0469 26.1261ZM87.0493 25.7559C86.2947 25.7559 85.5859 25.9004 84.9528 26.2247L85.8646 28.0048C86.1657 27.8505 86.5507 27.7559 87.0493 27.7559V25.7559ZM84.9615 26.2203C84.3695 26.5163 83.866 26.9322 83.4572 27.4578L85.0359 28.6857C85.2651 28.391 85.5364 28.1689 85.8559 28.0092L84.9615 26.2203ZM83.4466 27.4718C83.0592 27.9882 82.7753 28.5778 82.5859 29.2273L84.5059 29.7873C84.6355 29.3431 84.8187 28.9757 85.0466 28.6718L83.4466 27.4718ZM82.5821 29.2407C82.4071 29.8733 82.3237 30.5451 82.3237 31.2505H84.3237C84.3237 30.7026 84.3885 30.2123 84.5097 29.7739L82.5821 29.2407ZM104.259 26.79L103.848 25.8781L103.84 25.8821L104.259 26.79ZM103.233 27.6616L104.07 28.2103L104.077 28.1985L103.233 27.6616ZM102.875 28.9263V29.9263H103.875V28.9263H102.875ZM98.3457 28.9263H97.3457V29.9263H98.3457V28.9263ZM98.8926 26.7559L99.7749 27.2265L99.7781 27.2204L98.8926 26.7559ZM100.448 24.9102L101.071 25.6923L101.072 25.691L100.448 24.9102ZM102.892 23.6284L102.586 22.6764L102.582 22.6775L102.892 23.6284ZM109.847 23.8848L109.446 24.801L109.458 24.8059L109.847 23.8848ZM112.445 26.0039L111.611 26.5563L111.616 26.5632L112.445 26.0039ZM113.573 40.0176L112.587 40.1875L112.589 40.1973L112.591 40.2071L113.573 40.0176ZM114.12 41.7095H115.12V41.4734L115.014 41.2623L114.12 41.7095ZM114.12 42V43H115.12V42H114.12ZM109.522 42L108.615 42.4205L108.884 43H109.522V42ZM109.027 40.2227L108.039 40.377L108.039 40.3794L109.027 40.2227ZM109.488 30.7378L110.488 30.7251L110.476 29.7378H109.488V30.7378ZM109.522 33.4209V34.4209H110.535L110.522 33.4082L109.522 33.4209ZM104.806 33.6431L105.053 34.612L105.063 34.6095L105.072 34.6069L104.806 33.6431ZM103.49 34.2583L104.098 35.0519L104.106 35.0456L104.114 35.0392L103.49 34.2583ZM102.721 35.2153L103.626 35.6398L103.631 35.6291L102.721 35.2153ZM102.772 37.6934L101.9 38.1836L101.906 38.1938L101.912 38.2039L102.772 37.6934ZM103.695 38.5649L103.218 39.4438L103.233 39.4518L103.248 39.4594L103.695 38.5649ZM107.215 38.394L107.689 39.2745L107.696 39.271L107.702 39.2674L107.215 38.394ZM108.6 37.1978L107.783 36.6203L108.6 37.1978ZM109.129 35.8647L109.961 35.31L108.293 32.8077L108.131 35.8108L109.129 35.8647ZM110.428 37.813L111.375 38.1361L111.534 37.669L111.26 37.2583L110.428 37.813ZM109.71 39.2998L108.856 38.7799L109.71 39.2998ZM98.4824 34.2241L97.5826 33.7878L98.4824 34.2241ZM100.106 32.3271L100.687 33.1409L100.696 33.1348L100.106 32.3271ZM102.772 31.1479L103.012 32.1187L103.019 32.1169L102.772 31.1479ZM109.856 38.0693V29.5415H107.856V38.0693H109.856ZM109.856 29.5415C109.856 28.8015 109.728 28.1071 109.435 27.4889L107.628 28.347C107.767 28.6403 107.856 29.0283 107.856 29.5415H109.856ZM109.435 27.4889C109.129 26.8447 108.653 26.3382 108.031 25.9874L107.049 27.7294C107.316 27.8799 107.501 28.0798 107.628 28.347L109.435 27.4889ZM108.031 25.9874C107.395 25.6282 106.648 25.4824 105.848 25.4824V27.4824C106.416 27.4824 106.797 27.5873 107.049 27.7294L108.031 25.9874ZM105.848 25.4824C105.132 25.4824 104.457 25.6042 103.848 25.8781L104.669 27.702C104.972 27.5657 105.357 27.4824 105.848 27.4824V25.4824ZM103.84 25.8821C103.239 26.1594 102.742 26.5712 102.39 27.1247L104.077 28.1985C104.203 28.0001 104.39 27.8309 104.678 27.698L103.84 25.8821ZM102.397 27.113C102.041 27.6563 101.875 28.2725 101.875 28.9263H103.875C103.875 28.623 103.947 28.3961 104.069 28.2103L102.397 27.113ZM102.875 27.9263H98.3457V29.9263H102.875V27.9263ZM99.3457 28.9263C99.3457 28.3296 99.4864 27.7675 99.7749 27.2264L98.0102 26.2853C97.5696 27.1114 97.3457 27.9962 97.3457 28.9263H99.3457ZM99.7781 27.2204C100.072 26.6596 100.497 26.1496 101.071 25.6923L99.8247 24.128C99.0543 24.7417 98.442 25.4621 98.007 26.2913L99.7781 27.2204ZM101.072 25.691C101.65 25.2289 102.354 24.8548 103.201 24.5794L102.582 22.6775C101.538 23.0173 100.613 23.4977 99.8231 24.1293L101.072 25.691ZM103.198 24.5804C104.04 24.3097 105.005 24.167 106.104 24.167V22.167C104.834 22.167 103.657 22.3319 102.586 22.6764L103.198 24.5804ZM106.104 24.167C107.392 24.167 108.499 24.3865 109.446 24.8009L110.248 22.9686C109.008 22.426 107.62 22.167 106.104 22.167V24.167ZM109.458 24.8059C110.393 25.2011 111.1 25.7842 111.611 26.5563L113.278 25.4515C112.537 24.3323 111.512 23.5027 110.236 22.9637L109.458 24.8059ZM111.616 26.5632C112.117 27.3055 112.402 28.2879 112.402 29.5757H114.402C114.402 27.9924 114.049 26.5936 113.274 25.4446L111.616 26.5632ZM112.402 29.5757V37.6421H114.402V29.5757H112.402ZM112.402 37.6421C112.402 38.6023 112.461 39.4541 112.587 40.1875L114.558 39.8477C114.457 39.2594 114.402 38.5276 114.402 37.6421H112.402ZM112.591 40.2071C112.73 40.9258 112.937 41.5801 113.225 42.1567L115.014 41.2623C114.824 40.8818 114.667 40.4082 114.555 39.8281L112.591 40.2071ZM113.12 41.7095V42H115.12V41.7095H113.12ZM114.12 41H109.522V43H114.12V41ZM110.43 41.5795C110.264 41.2227 110.119 40.7267 110.014 40.0659L108.039 40.3794C108.162 41.1541 108.348 41.843 108.615 42.4205L110.43 41.5795ZM110.015 40.0683C109.909 39.3879 109.856 38.7218 109.856 38.0693H107.856C107.856 38.8297 107.917 39.5991 108.039 40.377L110.015 40.0683ZM108.488 30.7505L108.523 33.4336L110.522 33.4082L110.488 30.7251L108.488 30.7505ZM109.522 32.4209H106.668V34.4209H109.522V32.4209ZM106.668 32.4209C105.895 32.4209 105.181 32.5017 104.539 32.6793L105.072 34.6069C105.501 34.4883 106.029 34.4209 106.668 34.4209V32.4209ZM104.558 32.6741C103.92 32.8371 103.343 33.0951 102.865 33.4774L104.114 35.0392C104.32 34.8746 104.62 34.7225 105.053 34.612L104.558 32.6741ZM102.881 33.4647C102.415 33.8222 102.052 34.2696 101.81 34.8015L103.631 35.6291C103.731 35.4091 103.881 35.2185 104.098 35.0519L102.881 33.4647ZM101.815 34.7909C101.573 35.308 101.464 35.8725 101.464 36.4629H103.464C103.464 36.1191 103.527 35.8519 103.626 35.6398L101.815 34.7909ZM101.464 36.4629C101.464 37.0746 101.604 37.6562 101.9 38.1836L103.644 37.2031C103.53 37.0014 103.464 36.7627 103.464 36.4629H101.464ZM101.912 38.2039C102.227 38.7344 102.672 39.1476 103.218 39.4438L104.172 37.6861C103.92 37.5494 103.75 37.3815 103.632 37.1828L101.912 38.2039ZM103.248 39.4594C103.821 39.746 104.458 39.8726 105.13 39.8726V37.8726C104.709 37.8726 104.389 37.794 104.142 37.6705L103.248 39.4594ZM105.13 39.8726C106.063 39.8726 106.926 39.6853 107.689 39.2745L106.741 37.5136C106.319 37.7408 105.793 37.8726 105.13 37.8726V39.8726ZM107.702 39.2674C108.401 38.8776 108.985 38.3849 109.416 37.7752L107.783 36.6203C107.554 36.9448 107.214 37.2497 106.728 37.5207L107.702 39.2674ZM109.416 37.7752C109.818 37.2072 110.092 36.5841 110.128 35.9187L108.131 35.8108C108.121 35.9885 108.042 36.2541 107.783 36.6203L109.416 37.7752ZM108.297 36.4194L109.596 38.3677L111.26 37.2583L109.961 35.31L108.297 36.4194ZM109.482 37.4898C109.351 37.874 109.146 38.3035 108.856 38.7799L110.565 39.8198C110.913 39.2479 111.187 38.6862 111.375 38.1361L109.482 37.4898ZM108.856 38.7799C108.592 39.2143 108.245 39.6315 107.807 40.0296L109.153 41.5095C109.717 40.9961 110.191 40.4335 110.565 39.8198L108.856 38.7799ZM107.807 40.0296C107.4 40.3994 106.897 40.7174 106.282 40.9753L107.055 42.8197C107.853 42.4851 108.557 42.0511 109.153 41.5095L107.807 40.0296ZM106.282 40.9753C105.722 41.2102 105.037 41.3418 104.208 41.3418V43.3418C105.246 43.3418 106.203 43.1772 107.055 42.8197L106.282 40.9753ZM104.208 41.3418C103.148 41.3418 102.235 41.1308 101.446 40.7318L100.543 42.5163C101.646 43.0743 102.875 43.3418 104.208 43.3418V41.3418ZM101.446 40.7318C100.646 40.3268 100.036 39.7857 99.5914 39.1093L97.9203 40.2081C98.5693 41.1951 99.4522 41.9642 100.543 42.5163L101.446 40.7318ZM99.5914 39.1093C99.1589 38.4514 98.9355 37.6993 98.9355 36.8218H96.9355C96.9355 38.0634 97.2591 39.2025 97.9203 40.2081L99.5914 39.1093ZM98.9355 36.8218C98.9355 35.9672 99.094 35.2548 99.3822 34.6604L97.5826 33.7878C97.1416 34.6973 96.9355 35.7168 96.9355 36.8218H98.9355ZM99.3822 34.6604C99.6698 34.0673 100.098 33.562 100.687 33.1409L99.5247 31.5134C98.6787 32.1177 98.0242 32.877 97.5826 33.7878L99.3822 34.6604ZM100.696 33.1348C101.288 32.7025 102.051 32.3565 103.012 32.1187L102.532 30.1772C101.374 30.4635 100.36 30.9036 99.5163 31.5195L100.696 33.1348ZM103.019 32.1169C103.992 31.8684 105.132 31.7378 106.446 31.7378V29.7378C105.004 29.7378 103.693 29.8806 102.525 30.179L103.019 32.1169ZM106.446 31.7378H109.488V29.7378H106.446V31.7378ZM129.688 32.9253H128.688V33.9253H129.688V32.9253ZM129.688 29.2339V28.2339H128.688V29.2339H129.688ZM138.644 28.7212L139.109 29.6061L139.115 29.6031L138.644 28.7212ZM140.096 27.2856L140.987 27.7396L140.991 27.7329L140.096 27.2856ZM138.644 21.4409L138.11 22.2864L138.116 22.2906L138.644 21.4409ZM131.227 20.8257V19.8257H130.227V20.8257H131.227ZM131.227 42V43H132.227V42H131.227ZM126.527 42H125.527V43H126.527V42ZM126.527 17.1172V16.1172H125.527V17.1172H126.527ZM141.053 18.1597L140.6 19.0511L140.609 19.0556L141.053 18.1597ZM144.198 21.0137L143.336 21.5211L143.342 21.5305L144.198 21.0137ZM144.198 29.3022L143.351 28.7707L143.347 28.7768L144.198 29.3022ZM141.053 31.9854L140.639 31.075L140.637 31.0763L141.053 31.9854ZM136.097 31.9253H129.688V33.9253H136.097V31.9253ZM130.688 32.9253V29.2339H128.688V32.9253H130.688ZM129.688 30.2339H136.097V28.2339H129.688V30.2339ZM136.097 30.2339C137.243 30.2339 138.268 30.0489 139.109 29.6061L138.178 27.8363C137.72 28.0771 137.048 28.2339 136.097 28.2339V30.2339ZM139.115 29.6031C139.936 29.1642 140.577 28.5448 140.987 27.7396L139.205 26.8317C139 27.2342 138.673 27.5718 138.172 27.8393L139.115 29.6031ZM140.991 27.7329C141.377 26.9601 141.558 26.1027 141.558 25.1836H139.558C139.558 25.8368 139.431 26.3807 139.202 26.8384L140.991 27.7329ZM141.558 25.1836C141.558 24.2815 141.375 23.4246 141.003 22.6253L139.19 23.4694C139.433 23.9918 139.558 24.559 139.558 25.1836H141.558ZM141.003 22.6253C140.607 21.7761 139.985 21.0968 139.171 20.5913L138.116 22.2906C138.623 22.6053 138.97 22.997 139.19 23.4694L141.003 22.6253ZM139.178 20.5954C138.32 20.0538 137.268 19.8257 136.097 19.8257V21.8257C137.023 21.8257 137.668 22.0077 138.11 22.2864L139.178 20.5954ZM136.097 19.8257H131.227V21.8257H136.097V19.8257ZM130.227 20.8257V42H132.227V20.8257H130.227ZM131.227 41H126.527V43H131.227V41ZM127.527 42V17.1172H125.527V42H127.527ZM126.527 18.1172H136.097V16.1172H126.527V18.1172ZM136.097 18.1172C137.917 18.1172 139.405 18.4438 140.6 19.0511L141.506 17.2682C139.967 16.4856 138.151 16.1172 136.097 16.1172V18.1172ZM140.609 19.0556C141.83 19.6608 142.725 20.4839 143.336 21.521L145.059 20.5063C144.235 19.1053 143.034 18.0257 141.497 17.2638L140.609 19.0556ZM143.342 21.5305C143.968 22.5672 144.292 23.7636 144.292 25.1494H146.292C146.292 23.4362 145.886 21.8755 145.054 20.4968L143.342 21.5305ZM144.292 25.1494C144.292 26.6005 143.964 27.7935 143.351 28.7708L145.045 29.8337C145.89 28.4868 146.292 26.9112 146.292 25.1494H144.292ZM143.347 28.7768C142.745 29.7519 141.858 30.5212 140.639 31.075L141.467 32.8957C143.006 32.1963 144.215 31.1768 145.049 29.8277L143.347 28.7768ZM140.637 31.0763C139.432 31.6284 137.93 31.9253 136.097 31.9253V33.9253C138.138 33.9253 139.94 33.5956 141.47 32.8944L140.637 31.0763ZM148.983 17.1172V16.1172H147.983V17.1172H148.983ZM164.5 30.3447L163.892 29.5513L163.887 29.5554L164.5 30.3447ZM161.595 31.8486L161.285 30.898L161.21 30.9225L161.14 30.9584L161.595 31.8486ZM160.125 32.6006V33.6006H160.366L160.581 33.4908L160.125 32.6006ZM152.145 32.6006L151.145 32.6098L151.154 33.6006H152.145V32.6006ZM152.11 28.8921V27.8921H151.101L151.11 28.9013L152.11 28.8921ZM161.92 26.9609L161.043 26.4809L161.039 26.4873L161.036 26.4938L161.92 26.9609ZM161.937 22.7397L161.049 23.2001L161.053 23.2069L161.937 22.7397ZM153.683 20.8257V19.8257H152.683V20.8257H153.683ZM153.683 42V43H154.683V42H153.683ZM148.983 42H147.983V43H148.983V42ZM163.031 42L162.142 42.4592L162.422 43H163.031V42ZM157.271 30.8574L157.268 29.8574L155.632 29.8631L156.383 31.3166L157.271 30.8574ZM162.245 30.8403L163.127 30.3695L162.843 29.8383L162.241 29.8403L162.245 30.8403ZM168.072 41.7607H169.072V41.5106L168.954 41.2899L168.072 41.7607ZM168.072 42V43H169.072V42H168.072ZM148.983 18.1172H158.023V16.1172H148.983V18.1172ZM158.023 18.1172C159.818 18.1172 161.303 18.3879 162.507 18.8936L163.281 17.0498C161.773 16.4161 160.011 16.1172 158.023 16.1172V18.1172ZM162.507 18.8936C163.698 19.3942 164.575 20.1154 165.184 21.0478L166.859 19.9542C166.009 18.6534 164.802 17.6885 163.281 17.0498L162.507 18.8936ZM165.184 21.0478C165.786 21.9689 166.115 23.1412 166.115 24.6196H168.115C168.115 22.8396 167.716 21.2662 166.859 19.9542L165.184 21.0478ZM166.115 24.6196C166.115 25.7901 165.908 26.752 165.531 27.5351L167.332 28.4034C167.867 27.2952 168.115 26.024 168.115 24.6196H166.115ZM165.531 27.5351C165.143 28.34 164.599 29.0087 163.892 29.5513L165.109 31.1382C166.065 30.4047 166.809 29.4898 167.332 28.4034L165.531 27.5351ZM163.887 29.5554C163.168 30.1139 162.306 30.5647 161.285 30.898L161.906 32.7992C163.118 32.4034 164.192 31.8516 165.114 31.1341L163.887 29.5554ZM161.14 30.9584L159.67 31.7103L160.581 33.4908L162.051 32.7389L161.14 30.9584ZM160.125 31.6006H152.145V33.6006H160.125V31.6006ZM153.144 32.5914L153.11 28.8829L151.11 28.9013L151.145 32.6098L153.144 32.5914ZM152.11 29.8921H158.075V27.8921H152.11V29.8921ZM158.075 29.8921C159.154 29.8921 160.133 29.7023 160.957 29.2609L160.012 27.4979C159.56 27.7401 158.932 27.8921 158.075 27.8921V29.8921ZM160.957 29.2609C161.759 28.831 162.386 28.2187 162.804 27.4281L161.036 26.4938C160.815 26.9108 160.486 27.2442 160.012 27.4979L160.957 29.2609ZM162.797 27.4409C163.218 26.6722 163.416 25.8142 163.416 24.8931H161.416C161.416 25.5214 161.283 26.042 161.043 26.4809L162.797 27.4409ZM163.416 24.8931C163.416 23.9336 163.231 23.0485 162.821 22.2726L161.053 23.2069C161.281 23.6386 161.416 24.1891 161.416 24.8931H163.416ZM162.825 22.2794C162.404 21.4688 161.763 20.85 160.938 20.43L160.031 22.2126C160.504 22.4534 160.832 22.7802 161.049 23.2001L162.825 22.2794ZM160.938 20.43C160.107 20.0071 159.118 19.8257 158.023 19.8257V21.8257C158.911 21.8257 159.563 21.9746 160.031 22.2126L160.938 20.43ZM158.023 19.8257H153.683V21.8257H158.023V19.8257ZM152.683 20.8257V42H154.683V20.8257H152.683ZM153.683 41H148.983V43H153.683V41ZM149.983 42V17.1172H147.983V42H149.983ZM163.919 41.5408L158.16 30.3983L156.383 31.3166L162.142 42.4592L163.919 41.5408ZM157.275 31.8574L162.248 31.8403L162.241 29.8403L157.268 29.8574L157.275 31.8574ZM161.362 31.3111L167.19 42.2315L168.954 41.2899L163.127 30.3695L161.362 31.3111ZM167.072 41.7607V42H169.072V41.7607H167.072ZM168.072 41H163.031V43H168.072V41ZM190.631 35.2837L191.579 35.6021L191.58 35.5999L190.631 35.2837ZM185.196 41.5044L184.795 40.5882L185.196 41.5044ZM176.703 41.5044L176.302 42.4206L176.305 42.4219L176.703 41.5044ZM173.387 39.0947L172.641 39.7601L173.387 39.0947ZM171.217 35.2837L170.27 35.6064L170.271 35.6086L171.217 35.2837ZM171.217 23.8506L170.271 23.5257L171.217 23.8506ZM173.37 20.0396L174.121 20.7004L174.124 20.6963L173.37 20.0396ZM176.668 17.6128L176.271 16.6953L176.268 16.6966L176.668 17.6128ZM185.162 17.6128L184.761 18.529L185.162 17.6128ZM188.46 20.0396L187.706 20.6964L187.714 20.7049L188.46 20.0396ZM190.614 23.8506L189.666 24.169L189.668 24.1755L190.614 23.8506ZM186.256 25.3203L185.284 25.5553L185.284 25.5578L186.256 25.3203ZM185.145 22.7056L185.967 22.1357L185.145 22.7056ZM183.333 21.1162L182.881 22.0079L182.892 22.0135L183.333 21.1162ZM178.48 21.1162L178.933 22.0077L178.939 22.0048L178.48 21.1162ZM176.703 22.7056L175.881 22.1357L176.703 22.7056ZM175.575 25.3203L174.605 25.0753L174.603 25.0829L175.575 25.3203ZM175.575 33.7798L174.603 34.0148L174.605 34.0248L175.575 33.7798ZM176.703 36.4116L175.877 36.9754L175.882 36.9829L175.887 36.9904L176.703 36.4116ZM178.514 38.0181L178.056 38.9067L178.514 38.0181ZM185.145 36.4116L184.319 35.8479L184.317 35.8508L185.145 36.4116ZM186.256 33.7798L185.284 33.5448L186.256 33.7798ZM190.383 28.9263V30.208H192.383V28.9263H190.383ZM190.383 30.208C190.383 31.9998 190.144 33.5825 189.682 34.9675L191.58 35.5999C192.12 33.9771 192.383 32.1759 192.383 30.208H190.383ZM189.683 34.9653C189.219 36.3477 188.568 37.4976 187.744 38.4339L189.245 39.7555C190.266 38.5955 191.041 37.2047 191.579 35.6021L189.683 34.9653ZM187.744 38.4339C186.917 39.3728 185.937 40.0887 184.795 40.5882L185.597 42.4206C187.007 41.8036 188.226 40.913 189.245 39.7555L187.744 38.4339ZM184.795 40.5882C183.66 41.0849 182.381 41.3418 180.941 41.3418V43.3418C182.623 43.3418 184.18 43.0404 185.597 42.4206L184.795 40.5882ZM180.941 41.3418C179.526 41.3418 178.251 41.0857 177.1 40.5869L176.305 42.4219C177.729 43.0396 179.279 43.3418 180.941 43.3418V41.3418ZM177.103 40.5882C175.96 40.0882 174.973 39.3709 174.134 38.4294L172.641 39.7601C173.67 40.9149 174.893 41.8041 176.302 42.4206L177.103 40.5882ZM174.134 38.4294C173.298 37.4919 172.637 36.3413 172.163 34.9588L170.271 35.6086C170.822 37.2111 171.608 38.6012 172.641 39.7601L174.134 38.4294ZM172.163 34.961C171.692 33.578 171.448 31.9977 171.448 30.208H169.448C169.448 32.1781 169.716 33.9815 170.27 35.6064L172.163 34.961ZM171.448 30.208V28.9263H169.448V30.208H171.448ZM171.448 28.9263C171.448 27.1243 171.692 25.545 172.163 24.1755L170.271 23.5257C169.716 25.1412 169.448 26.9457 169.448 28.9263H171.448ZM172.163 24.1755C172.638 22.7906 173.295 21.6384 174.121 20.7004L172.62 19.3787C171.6 20.537 170.821 21.9255 170.271 23.5257L172.163 24.1755ZM174.124 20.6963C174.951 19.7473 175.93 19.0274 177.069 18.529L176.268 16.6966C174.855 17.3147 173.635 18.2127 172.616 19.3828L174.124 20.6963ZM177.066 18.5302C178.217 18.0315 179.492 17.7754 180.907 17.7754V15.7754C179.245 15.7754 177.695 16.0776 176.271 16.6953L177.066 18.5302ZM180.907 17.7754C182.346 17.7754 183.626 18.0323 184.761 18.529L185.563 16.6966C184.146 16.0768 182.589 15.7754 180.907 15.7754V17.7754ZM184.761 18.529C185.901 19.0274 186.88 19.7473 187.706 20.6963L189.215 19.3828C188.195 18.2127 186.976 17.3147 185.563 16.6966L184.761 18.529ZM187.714 20.7049C188.548 21.6407 189.202 22.789 189.666 24.169L191.562 23.5322C191.023 21.9271 190.241 20.5348 189.207 19.3742L187.714 20.7049ZM189.668 24.1755C190.138 25.545 190.383 27.1243 190.383 28.9263H192.383C192.383 26.9457 192.114 25.1412 191.56 23.5257L189.668 24.1755ZM187.632 30.208V28.8921H185.632V30.208H187.632ZM187.632 28.8921C187.632 27.4777 187.501 26.2043 187.227 25.0829L185.284 25.5578C185.512 26.4871 185.632 27.5949 185.632 28.8921H187.632ZM187.228 25.0853C186.955 23.9565 186.542 22.9646 185.967 22.1357L184.323 23.2755C184.728 23.8593 185.055 24.6106 185.284 25.5553L187.228 25.0853ZM185.967 22.1357C185.387 21.3004 184.657 20.6527 183.775 20.219L182.892 22.0135C183.446 22.2861 183.923 22.698 184.323 23.2755L185.967 22.1357ZM183.786 20.2246C182.912 19.7807 181.945 19.5693 180.907 19.5693V21.5693C181.668 21.5693 182.319 21.7225 182.881 22.0078L183.786 20.2246ZM180.907 19.5693C179.859 19.5693 178.889 19.7797 178.021 20.2276L178.939 22.0048C179.484 21.7235 180.131 21.5693 180.907 21.5693V19.5693ZM178.027 20.2247C177.17 20.6604 176.455 21.3075 175.881 22.1357L177.524 23.2755C177.93 22.6909 178.4 22.2784 178.933 22.0077L178.027 20.2247ZM175.881 22.1357C175.308 22.9614 174.89 23.9495 174.605 25.0753L176.544 25.5654C176.784 24.6175 177.117 23.8625 177.524 23.2755L175.881 22.1357ZM174.603 25.0829C174.329 26.2043 174.199 27.4777 174.199 28.8921H176.199C176.199 27.5949 176.319 26.4871 176.546 25.5578L174.603 25.0829ZM174.199 28.8921V30.208H176.199V28.8921H174.199ZM174.199 30.208C174.199 31.6121 174.329 32.8842 174.603 34.0148L176.547 33.5448C176.319 32.6018 176.199 31.4927 176.199 30.208H174.199ZM174.605 34.0248C174.89 35.1501 175.307 36.1412 175.877 36.9754L177.529 35.8479C177.118 35.2465 176.784 34.483 176.544 33.5347L174.605 34.0248ZM175.887 36.9904C176.472 37.8151 177.195 38.4624 178.056 38.9067L178.973 37.1294C178.421 36.8446 177.935 36.4209 177.518 35.8329L175.887 36.9904ZM178.056 38.9067C178.923 39.3545 179.893 39.5649 180.941 39.5649V37.5649C180.166 37.5649 179.518 37.4108 178.973 37.1294L178.056 38.9067ZM180.941 39.5649C181.988 39.5649 182.959 39.3545 183.826 38.9067L182.909 37.1294C182.364 37.4108 181.716 37.5649 180.941 37.5649V39.5649ZM183.826 38.9067C184.692 38.4598 185.408 37.8068 185.973 36.9725L184.317 35.8508C183.925 36.4292 183.456 36.8471 182.909 37.1294L183.826 38.9067ZM185.971 36.9754C186.543 36.1379 186.955 35.1432 187.228 34.0148L185.284 33.5448C185.055 34.4899 184.727 35.2498 184.319 35.8479L185.971 36.9754ZM187.228 34.0148C187.501 32.8842 187.632 31.6121 187.632 30.208H185.632C185.632 31.4927 185.512 32.6018 185.284 33.5448L187.228 34.0148Z" fill="black" mask="url(#path-3-outside-1_7340_13739)"/>
</svg>
