<svg width="16" height="16" viewBox="0 0 16 16" fill="none" xmlns="http://www.w3.org/2000/svg">
<g clip-path="url(#clip0_7468_80)">
<path d="M14.4698 11.1617L10.8861 9.55803C10.7472 9.49791 10.5955 9.47336 10.4447 9.48661C10.2939 9.49987 10.1488 9.5505 10.0225 9.63393C10.0124 9.64033 10.0027 9.64743 9.99362 9.65518L8.11148 11.2596C8.06959 11.2851 8.02205 11.2999 7.97307 11.3027C7.92409 11.3055 7.87518 11.2961 7.83067 11.2755C6.59817 10.6805 5.32241 9.4146 4.72741 8.19652C4.70637 8.15235 4.6966 8.10365 4.69898 8.05477C4.70136 8.0059 4.71583 7.95839 4.74107 7.91647L6.35 6.00321C6.35759 5.99411 6.36442 5.98424 6.37125 5.97437C6.45442 5.84824 6.50491 5.7034 6.51816 5.55289C6.53141 5.40239 6.507 5.25095 6.44715 5.11223L4.84049 1.53464C4.76293 1.35345 4.62868 1.2023 4.45789 1.10391C4.28711 1.00552 4.08901 0.965186 3.89335 0.988973C2.93829 1.11489 2.06173 1.58417 1.42739 2.30916C0.793043 3.03414 0.444301 3.96525 0.446298 4.92857C0.446298 10.7875 5.21237 15.5536 11.0713 15.5536C12.0346 15.5556 12.9657 15.2068 13.6907 14.5725C14.4157 13.9381 14.885 13.0616 15.0109 12.1065C15.0345 11.9117 14.9946 11.7146 14.8971 11.5443C14.7996 11.3741 14.6497 11.2398 14.4698 11.1617ZM14.4106 12.0306C14.3034 12.8394 13.9053 13.5816 13.2908 14.1182C12.6762 14.6548 11.8872 14.9493 11.0713 14.9464C5.54782 14.9464 1.05344 10.4521 1.05344 4.92857C1.05061 4.11268 1.34504 3.32369 1.88168 2.70912C2.41832 2.09454 3.16042 1.69646 3.96924 1.58929C3.98137 1.58853 3.99354 1.58853 4.00567 1.58929C4.06556 1.5898 4.12396 1.60801 4.17352 1.64164C4.22308 1.67526 4.26159 1.7228 4.2842 1.77826L5.8863 5.35585C5.90499 5.39957 5.91315 5.44708 5.91012 5.49453C5.90709 5.54199 5.89295 5.58807 5.86884 5.62906L4.26067 7.54156C4.25308 7.55143 4.24549 7.56053 4.23866 7.57116C4.15299 7.70218 4.10253 7.85307 4.09216 8.00927C4.08179 8.16547 4.11186 8.32171 4.17947 8.4629C4.83898 9.81303 6.19898 11.1632 7.56429 11.8227C7.70645 11.8898 7.86357 11.9191 8.02037 11.9075C8.17717 11.8959 8.32831 11.844 8.45907 11.7567L8.48715 11.7354L10.3716 10.1325C10.4119 10.1079 10.4575 10.0932 10.5046 10.0897C10.5517 10.0861 10.5989 10.0938 10.6425 10.1121L14.2254 11.7179C14.2859 11.7431 14.3366 11.7872 14.3699 11.8435C14.4033 11.8999 14.4176 11.9655 14.4106 12.0306Z" fill="#081B36"/>
</g>
<defs>
<clipPath id="clip0_7468_80">
<rect width="16" height="16" fill="white"/>
</clipPath>
</defs>
</svg>
