<svg width="289" height="453" viewBox="0 0 289 453" fill="none" xmlns="http://www.w3.org/2000/svg">
<path d="M21.0371 382.762C21.301 382.693 22.4299 382.224 23.5588 381.756C27.5351 380.119 31.5562 379.655 36.5096 380.214C43.861 381.068 48.9264 383.774 53.4919 389.279C60.5674 397.896 61.1168 409.625 54.8373 418.846C53.7701 420.339 53.7533 420.486 54.4833 421.04C57.5383 423.42 61.5816 426.334 64.1312 427.987C68.534 430.891 75.5874 434.79 75.9244 434.53C76.0648 434.422 76.8343 433.516 77.5869 432.533C79.4011 430.107 84.3941 426.301 87.2753 425.063C90.0441 423.91 93.6272 423.024 96.2837 422.852C101.366 422.507 107.504 424.118 112.093 426.969C114.412 428.397 114.99 428.934 117.736 432.223C120.319 435.369 120.903 436.304 121.807 438.466C123.116 441.791 123.711 444.638 123.744 447.919L123.8 450.556L130.478 451.26C134.122 451.622 139.098 451.985 141.496 452.057L145.866 452.128L146.18 449.383C146.99 442.549 150.186 437.001 155.746 432.714C159.279 430.034 161.845 428.859 166.619 427.859C173.673 426.396 181.21 428.09 187.572 432.655C189.796 434.247 193.25 438.285 194.507 440.711C195.136 441.924 195.861 442.974 196.085 443.024C197.27 443.182 212.013 436.505 217.309 433.404L218.876 432.464L217.826 430.459C214.317 423.783 214.211 415.554 217.53 408.705C219.378 404.868 221.44 402.295 224.753 399.74C228.067 397.185 231.117 395.816 235.29 394.921C239.378 394.092 244.5 394.298 248.358 395.478C250.908 396.237 254.76 398.136 256.333 399.381C257.411 400.247 256.984 400.621 261.073 395.323C262.483 393.521 263.73 391.8 263.808 391.561C263.949 391.229 263.544 390.737 262.241 389.597C260.265 387.86 257.766 384.425 256.474 381.624C256.003 380.602 255.234 378.157 254.768 376.193C253.342 369.876 254.713 362.832 258.509 357.402C263.576 350.055 272.449 345.893 281.671 346.512C283.12 346.601 284.372 346.618 284.485 346.531C284.85 346.25 286.53 338.521 287.445 332.766C288.266 327.621 288.603 323.34 288.221 322.874C288.131 322.765 286.806 322.491 285.301 322.222C274.108 320.488 265.342 311.655 263.844 300.613C263.423 297.363 264.08 291.852 265.299 288.812C268.029 281.971 274.915 275.723 281.705 273.883C282.66 273.594 282.935 273.426 282.907 273.001C282.885 270.739 275.164 251.673 273.996 250.921C273.805 250.8 272.569 251.082 271.21 251.55C267.509 252.795 264.561 253.058 259.782 252.544C256.165 252.161 254.901 251.795 252.032 250.478C250.06 249.585 247.662 248.173 246.517 247.224C239.048 241.144 235.657 231.651 237.702 222.524C238.376 219.547 240.482 215.018 242.184 212.902C243.858 210.807 243.852 210.856 241.348 208.587C237.119 204.834 229.616 199.047 227.095 197.596C226.303 197.134 226.303 197.134 224.871 198.909C222.815 201.432 217.272 205.35 214.155 206.413C205.674 209.378 196.627 208.134 189.528 203.063C186.883 201.127 182.773 196.12 181.47 193.193C180.353 190.659 179.37 186.502 179.253 183.733C179.197 181.989 179.843 176.13 180.124 175.913C180.208 175.848 181.719 175.621 183.51 175.402C186.318 175.023 192.507 173.736 194.288 173.167C194.714 173.017 194.804 172.456 194.546 170.913C194.159 168.486 194.665 164.298 195.648 162.2C198.636 155.785 205.623 152.006 212.547 153.011C216.703 153.604 220.595 155.607 222.774 158.26L223.582 159.245L225.256 158.267C226.166 157.7 227.401 156.747 228.036 156.123L229.137 155.006L228.16 153.481C227.099 151.798 226.071 148.033 225.993 145.591C225.937 143.177 227.111 139.412 228.65 137.153C232.57 131.315 240.467 128.533 246.981 130.658C248.065 131.028 249.093 131.219 249.261 131.089C249.739 130.721 253.294 123.377 254.429 120.402L255.474 117.765L253.098 116.603C250.818 115.502 250.56 115.299 247.999 112.18C245.438 109.061 245.292 108.772 244.675 106.344C243.945 103.332 244.215 98.9691 245.322 96.4627C247.54 91.4008 251.972 88.0284 257.852 86.979C259.132 86.7512 260.25 86.3808 260.329 86.1415C260.548 85.5704 259.852 77.7967 259.257 74.5026L258.774 71.792L256.73 71.76C253.433 71.7107 251.406 71.3082 249.098 70.2286C244.015 67.8928 240.932 63.9704 239.883 58.3908C238.839 53.2091 241.237 47.0257 245.506 43.7342L246.938 42.6298L245.916 41.0499C244.007 38.0543 240.098 32.8473 239.295 32.2602C238.661 31.7666 238.374 31.8088 237.475 32.5017C236.212 33.4762 233.258 34.6819 231.084 35.1069C228.989 35.516 224.581 35.1179 222.497 34.3118C217.123 32.2905 213.052 27.3878 212.148 21.8744C211.761 19.4477 212.283 15.3364 213.238 13.2597C213.749 12.1507 213.8 11.7095 213.345 11.4348C212.031 10.6163 204.657 7.27723 201.832 6.23864C199.378 5.31634 198.699 5.21485 198.468 5.66051C196.677 9.00805 195.261 10.6356 192.678 12.4045C188.258 15.4555 184.102 16.2029 179.131 14.8974C175.779 13.9978 173.016 12.1967 170.702 9.37889C168.883 7.16293 167.232 3.70001 167.165 2.0541C167.17 1.55827 167.007 0.968966 166.805 0.722749C166.468 0.312386 159.662 0.73591 154.995 1.47532L152.754 1.81825L152.596 4.53103C152.36 9.94064 150.203 13.7931 145.749 16.9148C143.604 18.4351 142.795 18.7907 140.302 19.3285C134.624 20.6241 128.727 18.9162 124.858 14.9299L122.937 12.926L121.073 14.0064C118.657 15.4219 108.408 23.3259 106.47 25.2669L104.965 26.785L106.677 29.262C109.451 33.1991 110.479 37.4109 109.748 41.5484C108.259 49.8451 100.222 55.4172 91.6354 54.1753C90.2258 53.9666 88.5971 53.6587 88.0299 53.4706L87.0191 53.1331L86.2327 54.8565C85.2778 56.9332 82.323 65.7347 82.3903 66.2636C82.3903 66.487 83.2495 67.0308 84.2492 67.4663C88.433 69.3781 92.0606 73.908 93.088 78.5666C93.6101 80.934 93.3964 84.5837 92.5425 86.8952C91.0708 91.0236 87.0044 95.0081 82.7136 96.485C81.4612 96.9147 80.4053 97.4161 80.3604 97.5848C80.0739 98.2972 81.5559 106.582 82.6171 110.052L82.9988 111.411L85.2004 111.188C89.9628 110.732 94.7476 112.315 98.1732 115.481C104.496 121.284 104.922 130.963 99.1991 137.342C98.3454 138.313 97.5198 139.263 97.3625 139.518C97.0929 139.86 97.7611 140.73 101.316 144.78C103.674 147.429 106.083 150.084 106.712 150.626C107.824 151.645 107.903 151.629 108.914 150.85C114.755 146.346 123.55 146.444 129.339 151.094C133.742 154.669 135.865 160.047 135.106 165.77L134.69 168.95L137.189 169.927C140.126 171.102 147.017 173.295 147.242 173.122C147.326 173.057 147.876 172.051 148.472 170.877C151.438 164.882 157.75 161.399 164.518 161.989C169.359 162.411 173.178 164.604 176.171 168.641C178.142 171.321 179.601 175.109 178.933 175.804C178.731 176.004 177.259 175.888 175.592 175.476C171.705 174.541 161.231 173.012 156.789 172.685L153.285 172.438L152.813 175.215C152.256 178.503 150.729 182.004 148.549 185.159C147.263 187 146.342 187.889 143.59 190.011C138.513 193.882 134.374 195.376 128.061 195.508C124.186 195.592 120.743 194.806 116.633 192.927C110.427 190.117 106.114 185.535 103.138 178.67C102.751 177.808 102.307 177.882 95.4553 180.261C91.2207 181.695 81.2518 185.808 81.2686 186.107C81.2574 186.205 81.5999 187.237 82.0266 188.427C83.711 193.383 83.4858 200.482 81.4412 205.365C79.5482 209.818 77.7452 212.147 73.5891 215.351C69.4554 218.584 66.8887 219.759 61.9971 220.671C55.5666 221.832 46.4238 219.634 41.8694 215.819C41.3079 215.358 40.662 214.963 40.4542 214.989C39.4939 215.104 30.8162 225.146 25.9802 231.824C23.6156 235.033 18.392 243.305 18.274 243.888C18.2796 244.062 19.3354 244.901 20.6775 245.698C22.8284 247.033 23.4293 247.597 26.2651 250.995C28.7135 253.977 29.5895 255.267 30.252 256.856C34.5812 267.547 31.6487 278.833 22.741 285.747C17.2594 290.019 11.5364 291.706 4.24119 291.256L1.74767 291.123L1.08441 298.024C0.674126 301.825 0.387285 307.005 0.353384 309.534L0.358623 314.176L3.12732 314.588C6.74964 315.145 9.66991 316.244 13.1629 318.376C15.8698 319.997 16.2404 320.337 19.1548 323.942C22.0075 327.417 22.4006 328.007 23.3102 330.567C25.646 336.987 25.4826 343.323 22.7808 349.249C20.7193 353.832 16.5013 358.47 12.3002 360.726C11.0983 361.385 10.1323 361.996 10.1267 362.045C10.0649 362.584 14.0965 371.404 16.118 375.207C19.5321 381.599 20.4474 382.994 21.0371 382.762ZM102.581 333.33C94.7253 318.344 95.5635 300.765 104.741 287.031C107.741 282.529 110.51 279.589 115.143 276.016C132.419 262.649 156.114 262.741 174.331 276.215C176.667 277.943 177.56 278.863 181.491 283.651C185.467 288.493 186.146 289.488 187.443 292.241C191.357 300.527 192.71 308.598 191.709 317.322C188.118 348.864 154.016 367.209 124.319 353.606C119.675 351.469 114.621 347.994 110.695 344.274C108.848 342.527 103.861 335.783 102.581 333.33ZM142.671 99.5761C140.464 94.4866 139.751 87.5301 140.909 82.1252C141.678 78.5382 144.037 73.5915 146.408 70.5574C148.789 67.4254 153.647 63.6791 157.422 62.0198C167.317 57.6504 178.505 58.7637 187.591 65.0266C191.011 67.3486 195.745 73.1701 197.384 76.9544C198.62 79.7995 199.63 83.9349 199.77 86.7309C200.04 91.5273 198.657 97.7758 196.467 101.922C193.743 106.927 187.907 112.276 182.544 114.625C179.146 116.128 173.614 117.266 170.059 117.237C163.336 117.149 156.131 114.574 150.903 110.385C148.96 108.8 143.709 101.903 142.671 99.5761Z" fill="#E4E6EA"/>
</svg>
