<svg width="641" height="622" viewBox="0 0 641 622" fill="none" xmlns="http://www.w3.org/2000/svg">
<path d="M468.03 40.2784L465.133 40.6161L464.786 43.543C463.743 51.7607 457.196 57.3893 448.621 57.3893C443.87 57.3893 440.393 55.9822 437.033 52.7176L434.541 50.2973L432.745 51.3104C430.312 52.6613 423.707 56.7702 423.707 56.939C423.707 56.9953 424.228 58.2336 424.865 59.6407C426.256 62.6802 426.488 67.6896 425.387 71.2919C424.228 75.0068 419.071 79.9037 415.016 81.0857C411.018 82.2677 408.526 82.2114 404.702 80.9168L401.632 79.9037L400.183 82.0425C399.43 83.2245 397.808 86.1514 396.649 88.5154L394.447 92.7931L395.896 93.75C401.516 97.3523 404.007 101.574 404.007 107.54C404.007 112.606 402.327 116.321 398.619 119.473C396.127 121.612 394.621 122.287 389.522 123.469C387.552 123.919 387.494 124.032 387.321 126.902C387.147 129.66 387.205 129.829 388.769 130.111C397.518 131.968 402.848 137.934 402.848 145.871C402.848 150.486 401.342 153.92 397.808 157.241C396.127 158.873 394.737 160.449 394.737 160.843C394.737 162.025 400.763 172.607 401.458 172.607C401.805 172.607 403.138 172.213 404.355 171.706C405.629 171.199 408.179 170.749 410.091 170.749C421.853 170.637 429.674 182.513 424.692 192.982L423.185 196.247L425.039 197.598C426.082 198.386 428.805 200.13 431.181 201.481L435.468 204.014L438.134 201.369C441.494 198.048 444.507 196.641 449.026 196.359C457.833 195.796 465.133 201.65 466.35 210.206C466.814 213.583 466.987 213.695 474.519 213.695H479.792L480.198 211.275C480.835 207.785 483.037 203.958 485.76 201.706C493.06 195.628 504.648 197.091 509.863 204.746C510.674 205.928 511.717 206.941 512.122 206.941C513.107 206.941 523.942 201.538 524.985 200.524C525.564 199.962 525.506 199.399 524.753 197.598C523.362 194.389 523.536 189.267 525.101 185.665C526.549 182.4 530.373 178.629 533.676 177.278C536.978 175.871 543.294 176.04 546.712 177.503L549.493 178.742L552.97 173.563C554.824 170.749 556.388 168.16 556.388 167.879C556.388 167.597 555.171 166.134 553.723 164.614C550.246 161.012 549.261 158.591 549.203 153.751C549.203 150.599 549.493 149.248 550.71 146.996C553.433 141.931 558.706 138.328 563.457 138.272C564.963 138.272 565.774 137.934 566.238 137.203C566.817 136.021 567.049 119.191 566.469 117.109C566.18 116.096 565.6 115.87 562.703 115.589C552.216 114.688 545.553 105.12 548.508 95.2134C549.319 92.6806 550.188 91.3297 552.68 88.9094C554.418 87.2208 555.809 85.5885 555.809 85.3071C555.809 84.294 549.146 74.6691 548.508 74.6691C548.161 74.6691 546.886 75.0631 545.785 75.5134C543.062 76.5828 537.616 76.5828 534.255 75.4571C526.491 72.9242 521.972 64.4813 524.174 56.6576C525.217 52.9427 525.448 53.2241 517.916 49.5093L512.76 46.9764L510.21 49.9033C506.618 53.8433 502.736 55.7007 497.869 55.7007C489.468 55.757 482.805 50.241 481.356 42.0795L480.951 39.7718L475.968 39.8844C473.187 39.8844 469.653 40.1095 468.03 40.2784ZM484.485 99.1535C489.816 100.504 493.929 102.812 497.927 106.696C504.011 112.55 506.734 119.022 506.618 127.296C506.502 142.156 495.204 153.863 479.618 155.439C475.215 155.89 468.668 154.595 463.917 152.344C448.447 144.97 442.942 125.383 452.445 111.368C456.5 105.401 462.642 101.011 469.537 99.2097C473.592 98.1403 480.545 98.084 484.485 99.1535Z" fill="#E4E6EA"/>
<path d="M262.292 0.5182C262.118 0.912202 261.597 2.76964 261.075 4.62707C259.221 11.1562 255.803 16.5597 250.125 22.0757C241.666 30.2372 233.091 33.7269 221.387 33.7832C203.136 33.7832 187.376 22.6386 181.698 5.64022C180.829 2.82592 180.655 2.65707 179.207 2.99478C173.065 4.34564 165.243 6.37194 160.55 7.83537C152.381 10.312 140.271 15.04 140.271 15.7154C140.271 15.9968 140.677 17.8543 141.199 19.768C142.531 24.4397 142.473 34.4023 141.199 39.1866C139.924 43.7458 137.49 49.0367 135.057 52.4701C130.422 59.0556 122.194 64.9656 113.909 67.7236C109.737 69.1307 108.463 69.2996 101.452 69.3559C94.789 69.3559 92.9929 69.1307 89.2847 68.0613C83.6646 66.3165 79.3771 64.1776 75.0896 60.913L71.6132 58.3238L64.0231 65.8099C59.9094 69.9188 54.4631 75.6599 51.9717 78.5305L47.5104 83.8214L50.755 86.9734C58.8086 94.8534 62.8064 104.366 62.8064 115.51C62.7485 122.546 61.7055 126.88 58.2292 133.747C53.0726 143.878 43.3387 151.421 31.0556 154.629C26.768 155.755 18.0771 155.924 13.6737 155.023C11.472 154.573 9.3862 154.404 9.0965 154.629C7.70595 155.924 1.62231 180.746 0.347637 190.371L0 193.241L3.65019 193.973C15.8175 196.393 26.5942 204.555 32.1564 215.53C35.2851 221.666 36.5598 226.788 36.5598 233.429C36.5598 240.071 35.2851 245.193 32.2723 251.216C29.2594 257.069 23.8711 263.148 18.4827 266.694C14.9484 269.058 8.63298 271.873 5.44631 272.548C3.24461 272.998 3.18667 272.098 5.96777 282.454C6.8948 286 7.87977 289.265 8.11153 289.603C8.40122 290.109 9.44414 290.109 12.2252 289.659C16.4548 288.984 23.4076 289.378 28.3324 290.616C30.1285 291.066 34.0684 292.586 37.0813 293.993C46.6992 298.608 54.4631 307.389 57.7077 317.521C62.1691 331.142 58.6927 346.226 48.6692 356.921C47.1048 358.609 45.8301 360.129 45.8301 360.354C45.8301 361.086 54.1734 370.936 60.7206 377.859C66.5725 384.051 71.787 388.779 72.772 388.779C73.0037 388.779 74.684 387.428 76.5381 385.852C89.98 373.863 110.201 372.005 126.018 381.293C130.654 384.051 137.143 390.411 139.866 394.97C146.007 405.214 147.224 419.961 142.821 430.149C142.241 431.612 142.183 432.119 142.763 432.513C145.718 434.764 178.164 444.502 180.308 443.826C180.655 443.714 181.524 441.912 182.278 439.774C184.363 433.976 186.971 430.092 192.417 424.745C196.531 420.693 198.269 419.511 202.846 417.315C205.975 415.796 210.204 414.276 212.58 413.826C227.934 410.786 243.636 416.19 253.427 427.897C256.614 431.725 260.38 438.873 261.423 443.094C262.466 447.26 262.408 447.203 267.854 446.415C276.951 445.008 291.957 441.631 296.36 439.999C297.751 439.492 297.751 439.492 296.882 435.946C295.665 430.88 296.129 420.13 297.867 415.233C302.502 401.837 313.163 391.987 326.837 388.385C331.993 387.09 342.596 387.09 347.695 388.441C352.098 389.623 358.472 392.606 362.18 395.251C364.497 396.94 371.45 403.638 371.45 404.201C371.45 404.37 370.233 406.452 368.727 408.873C366.409 412.7 361.89 421.593 360.847 424.351C360.615 425.027 361.253 425.702 363.512 426.94C367.047 428.91 371.971 433.751 373.71 437.072C379.04 447.203 376.954 459.586 368.727 467.072C363.802 471.575 357.313 474.333 351.693 474.333H349.607L349.201 477.373C349.027 479.061 349.027 481.538 349.201 482.945L349.549 485.421L352.504 485.759C355.748 486.153 361.658 488.686 364.903 491.05C368.09 493.414 371.798 498.649 373.188 502.814C376.838 513.508 372.551 526.004 363.281 531.857C361.716 532.814 360.442 533.884 360.442 534.221C360.442 535.178 366.409 546.942 369.132 551.332L371.508 555.272L375.39 553.527C379.098 551.839 379.619 551.726 386.225 551.726C392.83 551.726 393.351 551.839 397.117 553.527C401.752 555.666 407.141 560.394 409.284 564.278C413.63 572.102 413.572 580.939 409.053 589.213C408.068 591.014 407.43 592.759 407.662 593.096C408.184 593.941 418.96 600.92 423.827 603.509L427.825 605.648L429.911 603.172C433.271 599.175 435.821 597.093 439.529 595.348C447.64 591.464 455.81 591.633 464.095 595.967C471.859 599.907 477.479 609.082 477.479 617.637V620.508L480.55 620.845C486.344 621.521 497.005 621.971 498.569 621.577C499.844 621.296 500.076 620.902 500.076 619.101C500.076 616.568 501.466 611.727 503.089 608.631C504.653 605.648 509.578 600.639 512.706 598.894C520.702 594.335 531.131 594.278 539.185 598.725C542.719 600.695 547.528 605.479 549.266 608.744C550.193 610.489 550.715 610.995 551.526 610.714C553.901 609.926 565.605 604.241 569.777 601.821C573.427 599.738 574.238 599.006 573.891 598.275C571.341 592.702 570.646 589.325 570.936 584.372C571.399 575.873 574.586 570.019 581.249 565.235C585.768 562.027 590.867 560.451 596.835 560.451C601.528 560.451 607.669 561.914 609.871 563.49C610.508 563.997 611.435 564.391 611.957 564.391C612.826 564.391 619.083 555.61 622.791 549.137L624.588 546.041L621.227 543.115C614.448 537.373 611.609 530.844 612.015 522.232C612.189 518.067 612.536 516.716 614.332 513.114C618.33 504.84 626.442 499.324 635.48 498.592L640 498.255L640.463 494.878C641.042 490.487 641.042 469.943 640.463 465.609L640 462.232L635.075 461.838C627.195 461.275 620.706 458.292 616.071 453.226C606.8 443.038 607.611 427.56 617.809 418.272C619.489 416.753 621.517 415.064 622.328 414.557L623.776 413.657L622.328 410.955C620.59 407.691 612.131 395.195 611.377 394.745C611.088 394.52 609.523 395.026 607.959 395.814C601.296 399.023 591.794 398.91 584.725 395.477C581.133 393.732 576.614 389.792 574.47 386.415C570.588 380.448 569.487 371.442 571.863 364.688C572.558 362.718 572.964 360.917 572.79 360.692C572.152 359.622 559.927 353.093 554.365 350.898L552.221 349.998L550.309 352.924C546.138 359.228 539.301 363.506 531.769 364.519C517.921 366.433 504.943 357.202 502.393 343.75C501.988 341.724 501.582 339.753 501.408 339.303C501.234 338.628 499.438 338.571 490.632 338.853C484.838 339.078 478.986 339.359 477.653 339.585C475.22 339.922 475.162 340.035 475.162 342.061C475.162 353.769 466.239 364.463 454.419 366.883C445.381 368.684 436.284 365.87 429.621 359.172L425.913 355.457L422.147 357.54C417.686 359.96 407.952 366.208 407.952 366.658C407.952 366.827 408.705 368.516 409.632 370.429C414.441 380.111 412.645 391.368 405.113 399.079C399.724 404.595 393.061 407.071 384.834 406.677C379.388 406.396 373.014 404.37 372.783 402.85C372.725 402.4 374.347 400.711 376.549 399.079C381.647 395.251 394.104 383.938 398.971 378.816L402.795 374.763L399.667 371.386C395.958 367.39 392.946 361.986 391.034 356.133C389.933 352.699 389.701 350.673 389.701 345.157C389.759 335.025 391.961 328.44 398.102 320.56C401.868 315.719 406.33 312.286 412.877 309.134C422.726 304.35 432.982 303.674 444.859 306.939C446.366 307.333 446.713 306.714 450.479 295.907C452.855 289.265 457.49 272.886 457.085 272.604C456.969 272.492 455.288 271.873 453.318 271.197C445.207 268.27 436.226 260.841 431.939 253.411C428.057 246.6 426.84 242.041 426.84 233.711C426.782 225.38 427.825 221.046 431.533 214.123C436.458 205.061 448.452 196.056 457.954 194.311C459.112 194.086 460.271 193.692 460.445 193.41C461.256 192.116 456.911 171.346 453.087 158.682C451.291 152.546 445.786 137.8 445.149 137.068C444.917 136.899 442.774 137.349 440.398 138.194C436.516 139.488 435.183 139.657 427.941 139.713C421.626 139.713 419.076 139.488 416.353 138.7C398.16 133.24 386.456 118.268 386.398 100.369C386.34 89.3374 389.875 80.6131 397.755 72.1139L400.42 69.187L392.134 61.4196C387.615 57.0856 381.184 51.5133 377.939 48.9241L371.914 44.2524L368.611 47.2355C364.266 51.1193 359.92 53.5958 353.663 55.7347C348.854 57.4233 348.042 57.5358 340.452 57.4796C333.094 57.4796 331.935 57.367 327.706 55.9036C317.045 52.3013 308.991 45.7158 304.008 36.4286C300.127 29.2803 298.33 19.4303 299.605 12.0005C299.953 9.86166 300.127 8.06051 300.069 8.00423C299.431 7.38508 283.961 3.44507 277.009 2.09421C265.305 -0.157231 262.582 -0.438661 262.292 0.5182ZM244.852 150.408C272.142 155.867 294.101 174.611 302.734 199.714C305.573 207.932 306.616 214.292 306.616 223.579C306.674 258.251 282.861 287.239 247.17 296.019C242.593 297.145 240.507 297.314 230.367 297.314C220.112 297.314 218.142 297.145 213.275 295.963C198.617 292.417 186.797 285.944 176.484 275.925C139.171 239.733 149.484 179.395 196.82 156.655C204.237 153.109 213.797 150.408 222.546 149.338C226.659 148.832 240.391 149.507 244.852 150.408ZM507.897 435.158C516.704 437.578 526.438 443.714 532.29 450.58C536.172 455.14 540.228 463.02 541.792 468.986C543.472 475.065 543.472 484.802 541.85 491.106C537.62 507.654 524.99 520.262 507.782 525.103C501.35 526.96 489.067 526.904 482.52 525.103C477.595 523.752 471.222 520.825 467.456 518.18C460.967 513.677 454.246 505.684 451.059 498.818C447.293 490.431 446.192 477.879 448.51 468.93C449.958 463.245 454.014 455.308 457.606 450.974C464.443 442.813 474.988 436.565 485.649 434.37C489.647 433.582 503.842 434.089 507.897 435.158Z" fill="#E4E6EA"/>
</svg>
