<svg width="96" height="15" viewBox="0 0 96 15" fill="none" xmlns="http://www.w3.org/2000/svg">
<path d="M8 0L10.2483 4.40551L15.1329 5.18237L11.6378 8.68199L12.4084 13.5676L8 11.325L3.59161 13.5676L4.36221 8.68199L0.867076 5.18237L5.75172 4.40551L8 0Z" fill="#8F070E"/>
<path d="M28 0L30.2483 4.40551L35.1329 5.18237L31.6378 8.68199L32.4084 13.5676L28 11.325L23.5916 13.5676L24.3622 8.68199L20.8671 5.18237L25.7517 4.40551L28 0Z" fill="#8F070E"/>
<path d="M48 0L50.2483 4.40551L55.1329 5.18237L51.6378 8.68199L52.4084 13.5676L48 11.325L43.5916 13.5676L44.3622 8.68199L40.8671 5.18237L45.7517 4.40551L48 0Z" fill="#8F070E"/>
<path d="M68 0L70.2483 4.40551L75.1329 5.18237L71.6378 8.68199L72.4084 13.5676L68 11.325L63.5916 13.5676L64.3622 8.68199L60.8671 5.18237L65.7517 4.40551L68 0Z" fill="#8F070E"/>
<path d="M88 0L90.2483 4.40551L95.1329 5.18237L91.6378 8.68199L92.4084 13.5676L88 11.325L83.5916 13.5676L84.3622 8.68199L80.8671 5.18237L85.7517 4.40551L88 0Z" fill="#CACACA"/>
</svg>
